<svg xmlns="http://www.w3.org/2000/svg" width="380.055" height="389.812"><path d="M8.82 236.021c-7.159-7.885-1.656-23.652-7.081-51.68-.762-3.934-7.46-41.3 11.8-76.89 5.922-10.943 14.962-20.321 33.043-39.075 14.093-14.619 21.354-22.019 31.863-26.47 16.585-7.026 19.652.422 37.763-7.563 9-3.968 17.114-9.717 31.863-20.168 11.647-8.253 10.55-8.374 14.161-10.084 15.8-7.482 32.216-2.974 42.484 0 5.506 1.6 14.685 6.106 33.043 15.127 14.333 7.044 23.672 12.191 34.222 11.345 1.672-.134 9.487-.91 12.982-1.26 12.1-1.215 12.009-1.313 12.981-1.261 12.718.682 21.924 17.165 23.6 20.168 7.114 12.737 1.879 15.337 9.441 35.294a105.934 105.934 0 0015.341 27.731c5.231 6.7 6.247 6.158 11.8 12.6 6.314 7.329 18.92 21.964 21.242 42.857.781 7.036 1.985 17.866-3.54 27.731-4.23 7.552-8.844 8.182-15.342 18.908-3.47 5.727-6.544 10.8-7.08 17.647-.784 9.986 4.742 12.1 8.26 26.47 1.671 6.824 5 20.43-1.18 31.513-2.994 5.366-7.292 8.481-12.981 12.6-3.447 2.5-7.453 4.9-16.521 8.823a247.866 247.866 0 01-23.6 8.824c-17.933 5.665-22.767 5.3-28.323 11.345-3.931 4.28-1.741 4.715-7.081 12.6-6.371 9.413-13.835 15.218-23.6 22.689a117.048 117.048 0 01-10.62 7.563c-7.947 4.861-17.714 8.9-41.3 12.6-16.634 2.613-24.952 3.919-36.583 3.781-31.236-.371-54.687-10.7-67.266-16.386-26.963-12.2-42.138-18.345-53.1-35.294-6.717-10.382-6.851-16.847-15.341-49.159-6.03-22.949-11.64-41.3-15.341-52.941" data-name="Path 26" fill="#15bde8" opacity=".08"/></svg>