<svg xmlns="http://www.w3.org/2000/svg" width="62" height="62"><style>.shp1{fill:#fff}</style><path d="M31 62C13.86 62 0 48.14 0 31S13.86 0 31 0s31 13.86 31 31-13.86 31-31 31z" fill="coral"/><path class="shp1" d="M25.84 35.53l5.14-5.14 5.14 5.14c.29.29.68.44 1.09.44.4 0 .79-.16 1.08-.45.29-.29.45-.68.45-1.08 0-.41-.15-.8-.44-1.09l-6.23-6.23a1.46 1.46 0 00-.5-.35 1.53 1.53 0 00-1.19 0c-.18.08-.35.2-.49.35l-6.24 6.23c-.28.29-.44.68-.44 1.09.01.4.17.79.46 1.08.28.29.67.45 1.08.45.4.01.8-.15 1.09-.44z"/><g><path d="M31 181c-17.14 0-31-13.86-31-31s13.86-31 31-31 31 13.86 31 31-13.86 31-31 31z" fill="#b0edff"/><path class="shp1" d="M25.84 147.12l5.14 5.14 5.14-5.14c.14-.15.31-.27.5-.35a1.518 1.518 0 011.18 0c.19.08.36.2.5.35.15.14.27.31.35.5a1.518 1.518 0 010 1.18c-.08.19-.2.36-.35.5l-6.23 6.23c-.14.15-.31.27-.5.35a1.53 1.53 0 01-1.19 0c-.18-.08-.35-.2-.49-.35l-6.24-6.23a1.57 1.57 0 01-.44-1.09c.01-.4.17-.79.46-1.08.28-.29.67-.45 1.08-.45.4 0 .8.15 1.09.44z"/></g></svg>