<svg xmlns="http://www.w3.org/2000/svg" width="435" height="166.828"><g style="isolation:isolate" fill="#00a7e6"><g opacity=".502" transform="translate(227)"><ellipse data-name="Ellipse 8" cx="7.7" cy="7.69" rx="7.7" ry="7.69"/><ellipse data-name="Ellipse 8 copy" cx="7.7" cy="7.69" rx="7.7" ry="7.69" transform="translate(38.53)"/><ellipse data-name="Ellipse 8 copy 2" cx="7.7" cy="7.69" rx="7.7" ry="7.69" transform="translate(77.03)"/><ellipse data-name="Ellipse 8 copy 3" cx="7.7" cy="7.69" rx="7.7" ry="7.69" transform="translate(115.57)"/><ellipse data-name="Ellipse 8 copy 4" cx="7.7" cy="7.69" rx="7.7" ry="7.69" transform="translate(154.07)"/><ellipse data-name="Ellipse 8 copy 5" cx="7.7" cy="7.69" rx="7.7" ry="7.69" transform="translate(192.6)"/></g><g data-name="Ellise copy" transform="translate(227 37.857)" opacity=".502"><ellipse data-name="Ellipse 8" cx="7.7" cy="7.69" rx="7.7" ry="7.69" opacity=".502"/><ellipse data-name="Ellipse 8 copy" cx="7.7" cy="7.69" rx="7.7" ry="7.69" transform="translate(38.53)" opacity=".502"/><ellipse data-name="Ellipse 8 copy 2" cx="7.7" cy="7.69" rx="7.7" ry="7.69" transform="translate(77.03)" opacity=".502"/><ellipse data-name="Ellipse 8 copy 3" cx="7.7" cy="7.69" rx="7.7" ry="7.69" transform="translate(115.57)" opacity=".502"/><ellipse data-name="Ellipse 8 copy 4" cx="7.7" cy="7.69" rx="7.7" ry="7.69" transform="translate(154.07)" opacity=".502"/><ellipse data-name="Ellipse 8 copy 5" cx="7.7" cy="7.69" rx="7.7" ry="7.69" transform="translate(192.6)" opacity=".502"/></g><g data-name="Ellise copy 2" transform="translate(227 75.724)" opacity=".502"><ellipse data-name="Ellipse 8" cx="7.7" cy="7.69" rx="7.7" ry="7.69" opacity=".502"/><ellipse data-name="Ellipse 8 copy" cx="7.7" cy="7.69" rx="7.7" ry="7.69" transform="translate(38.53)" opacity=".502"/><ellipse data-name="Ellipse 8 copy 2" cx="7.7" cy="7.69" rx="7.7" ry="7.69" transform="translate(77.03)" opacity=".502"/><ellipse data-name="Ellipse 8 copy 3" cx="7.7" cy="7.69" rx="7.7" ry="7.69" transform="translate(115.57)" opacity=".502"/><ellipse data-name="Ellipse 8 copy 4" cx="7.7" cy="7.69" rx="7.7" ry="7.69" transform="translate(154.07)" opacity=".502"/><ellipse data-name="Ellipse 8 copy 5" cx="7.7" cy="7.69" rx="7.7" ry="7.69" transform="translate(192.6)" opacity=".502"/></g><g data-name="Ellise copy 3" transform="translate(227 113.581)" opacity=".502"><ellipse data-name="Ellipse 8" cx="7.7" cy="7.69" rx="7.7" ry="7.69" opacity=".502"/><ellipse data-name="Ellipse 8 copy" cx="7.7" cy="7.69" rx="7.7" ry="7.69" transform="translate(38.53)" opacity=".502"/><ellipse data-name="Ellipse 8 copy 2" cx="7.7" cy="7.69" rx="7.7" ry="7.69" transform="translate(77.03)" opacity=".502"/><ellipse data-name="Ellipse 8 copy 3" cx="7.7" cy="7.69" rx="7.7" ry="7.69" transform="translate(115.57)" opacity=".502"/><ellipse data-name="Ellipse 8 copy 4" cx="7.7" cy="7.69" rx="7.7" ry="7.69" transform="translate(154.07)" opacity=".502"/><ellipse data-name="Ellipse 8 copy 5" cx="7.7" cy="7.69" rx="7.7" ry="7.69" transform="translate(192.6)" opacity=".502"/></g><g data-name="Ellise copy 4" transform="translate(227 151.448)" opacity=".502"><ellipse data-name="Ellipse 8" cx="7.7" cy="7.69" rx="7.7" ry="7.69" opacity=".502"/><ellipse data-name="Ellipse 8 copy" cx="7.7" cy="7.69" rx="7.7" ry="7.69" transform="translate(38.53)" opacity=".502"/><ellipse data-name="Ellipse 8 copy 2" cx="7.7" cy="7.69" rx="7.7" ry="7.69" transform="translate(77.03)" opacity=".502"/><ellipse data-name="Ellipse 8 copy 3" cx="7.7" cy="7.69" rx="7.7" ry="7.69" transform="translate(115.57)" opacity=".502"/><ellipse data-name="Ellipse 8 copy 4" cx="7.7" cy="7.69" rx="7.7" ry="7.69" transform="translate(154.07)" opacity=".502"/><ellipse data-name="Ellipse 8 copy 5" cx="7.7" cy="7.69" rx="7.7" ry="7.69" transform="translate(192.6)" opacity=".502"/></g><g data-name="Ellipse copy"><g data-name="Ellise" opacity=".502"><ellipse data-name="Ellipse 8" cx="7.7" cy="7.69" rx="7.7" ry="7.69"/><ellipse data-name="Ellipse 8 copy" cx="7.7" cy="7.69" rx="7.7" ry="7.69" transform="translate(38.53)"/><ellipse data-name="Ellipse 8 copy 2" cx="7.7" cy="7.69" rx="7.7" ry="7.69" transform="translate(77.03)"/><ellipse data-name="Ellipse 8 copy 3" cx="7.7" cy="7.69" rx="7.7" ry="7.69" transform="translate(115.57)"/><ellipse data-name="Ellipse 8 copy 4" cx="7.7" cy="7.69" rx="7.7" ry="7.69" transform="translate(154.07)"/><ellipse data-name="Ellipse 8 copy 5" cx="7.7" cy="7.69" rx="7.7" ry="7.69" transform="translate(192.6)"/></g><g data-name="Ellise copy" transform="translate(0 37.857)" opacity=".502"><ellipse data-name="Ellipse 8" cx="7.7" cy="7.69" rx="7.7" ry="7.69" opacity=".502"/><ellipse data-name="Ellipse 8 copy" cx="7.7" cy="7.69" rx="7.7" ry="7.69" transform="translate(38.53)" opacity=".502"/><ellipse data-name="Ellipse 8 copy 2" cx="7.7" cy="7.69" rx="7.7" ry="7.69" transform="translate(77.03)" opacity=".502"/><ellipse data-name="Ellipse 8 copy 3" cx="7.7" cy="7.69" rx="7.7" ry="7.69" transform="translate(115.57)" opacity=".502"/><ellipse data-name="Ellipse 8 copy 4" cx="7.7" cy="7.69" rx="7.7" ry="7.69" transform="translate(154.07)" opacity=".502"/><ellipse data-name="Ellipse 8 copy 5" cx="7.7" cy="7.69" rx="7.7" ry="7.69" transform="translate(192.6)" opacity=".502"/></g><g data-name="Ellise copy 2" transform="translate(0 75.724)" opacity=".502"><ellipse data-name="Ellipse 8" cx="7.7" cy="7.69" rx="7.7" ry="7.69" opacity=".502"/><ellipse data-name="Ellipse 8 copy" cx="7.7" cy="7.69" rx="7.7" ry="7.69" transform="translate(38.53)" opacity=".502"/><ellipse data-name="Ellipse 8 copy 2" cx="7.7" cy="7.69" rx="7.7" ry="7.69" transform="translate(77.03)" opacity=".502"/><ellipse data-name="Ellipse 8 copy 3" cx="7.7" cy="7.69" rx="7.7" ry="7.69" transform="translate(115.57)" opacity=".502"/><ellipse data-name="Ellipse 8 copy 4" cx="7.7" cy="7.69" rx="7.7" ry="7.69" transform="translate(154.07)" opacity=".502"/><ellipse data-name="Ellipse 8 copy 5" cx="7.7" cy="7.69" rx="7.7" ry="7.69" transform="translate(192.6)" opacity=".502"/></g><g data-name="Ellise copy 3" transform="translate(0 113.581)" opacity=".502"><ellipse data-name="Ellipse 8" cx="7.7" cy="7.69" rx="7.7" ry="7.69" opacity=".502"/><ellipse data-name="Ellipse 8 copy" cx="7.7" cy="7.69" rx="7.7" ry="7.69" transform="translate(38.53)" opacity=".502"/><ellipse data-name="Ellipse 8 copy 2" cx="7.7" cy="7.69" rx="7.7" ry="7.69" transform="translate(77.03)" opacity=".502"/><ellipse data-name="Ellipse 8 copy 3" cx="7.7" cy="7.69" rx="7.7" ry="7.69" transform="translate(115.57)" opacity=".502"/><ellipse data-name="Ellipse 8 copy 4" cx="7.7" cy="7.69" rx="7.7" ry="7.69" transform="translate(154.07)" opacity=".502"/><ellipse data-name="Ellipse 8 copy 5" cx="7.7" cy="7.69" rx="7.7" ry="7.69" transform="translate(192.6)" opacity=".502"/></g><g data-name="Ellise copy 4" transform="translate(0 151.448)" opacity=".502"><ellipse data-name="Ellipse 8" cx="7.7" cy="7.69" rx="7.7" ry="7.69" opacity=".502"/><ellipse data-name="Ellipse 8 copy" cx="7.7" cy="7.69" rx="7.7" ry="7.69" transform="translate(38.53)" opacity=".502"/><ellipse data-name="Ellipse 8 copy 2" cx="7.7" cy="7.69" rx="7.7" ry="7.69" transform="translate(77.03)" opacity=".502"/><ellipse data-name="Ellipse 8 copy 3" cx="7.7" cy="7.69" rx="7.7" ry="7.69" transform="translate(115.57)" opacity=".502"/><ellipse data-name="Ellipse 8 copy 4" cx="7.7" cy="7.69" rx="7.7" ry="7.69" transform="translate(154.07)" opacity=".502"/><ellipse data-name="Ellipse 8 copy 5" cx="7.7" cy="7.69" rx="7.7" ry="7.69" transform="translate(192.6)" opacity=".502"/></g></g></g></svg>