<svg xmlns="http://www.w3.org/2000/svg" width="220.259" height="218.761"><defs><style>.cls-1,.cls-2,.cls-5{fill:#15bde8}.cls-1{opacity:.08}.cls-2{opacity:.05}.cls-5{stroke:#fff;stroke-miterlimit:10;stroke-width:1.372px}</style></defs><g id="_1" data-name="1"><g id="Vector_Smart_Object" data-name="Vector Smart Object"><path id="Path_26" d="M145.719 165.862c-3.63-3.743-.84-11.227-3.59-24.531-.386-1.867-3.782-19.6 5.983-36.5 3-5.194 7.586-9.645 16.754-18.548 7.145-6.939 10.827-10.452 16.155-12.564 8.409-3.335 9.964.2 19.147-3.59 4.562-1.883 8.677-4.612 16.155-9.573 5.905-3.917 5.349-3.975 7.18-4.787 8.013-3.551 16.335-1.412 21.541 0 2.792.757 7.446 2.9 16.754 7.18 7.267 3.343 12 5.787 17.352 5.385.848-.064 4.81-.432 6.582-.6 6.135-.577 6.089-.623 6.582-.6 6.448.324 11.116 8.148 11.967 9.573 3.607 6.046.953 7.28 4.787 16.753a49.553 49.553 0 007.778 13.163c2.652 3.179 3.167 2.923 5.983 5.983 3.2 3.479 9.593 10.425 10.77 20.343.4 3.34 1.006 8.48-1.795 13.163-2.145 3.585-4.484 3.884-7.779 8.975-1.759 2.718-3.318 5.126-3.59 8.376-.4 4.74 2.4 5.745 4.188 12.564.847 3.239 2.537 9.7-.6 14.958-1.518 2.547-3.7 4.026-6.582 5.983a41.607 41.607 0 01-8.377 4.188 131.061 131.061 0 01-11.967 4.188c-9.093 2.689-11.544 2.514-14.361 5.385-1.993 2.032-.883 2.238-3.59 5.983-3.23 4.468-7.015 7.223-11.967 10.77a59.483 59.483 0 01-5.385 3.59c-4.029 2.307-8.982 4.224-20.942 5.983-8.434 1.24-12.651 1.86-18.549 1.795-15.838-.176-27.728-5.077-34.106-7.778-13.671-5.789-21.365-8.708-26.926-16.753-3.406-4.928-3.474-8-7.778-23.334a489.56 489.56 0 00-7.778-25.129" class="cls-1" data-name="Path 26" transform="translate(-127.467 -35.701)"/><path id="Path_27" d="M151.945 118.333c-1.307-5.047 4.816-10.176 9-23.1.587-1.814 6.394-18.912 23.231-28.779 5.176-3.034 11.361-4.64 23.729-7.852 9.641-2.5 14.577-3.74 20.254-2.945 8.959 1.253 8.565 5.1 18.422 6.335 4.9.616 9.823.275 18.776-.344 7.07-.489 6.615-.814 8.608-.615 8.722.87 14.9 6.84 18.729 10.639 2.054 2.037 5.043 6.2 11.021 14.518 4.668 6.5 7.578 10.96 12.427 13.253.768.363 4.4 2 6.018 2.731 5.619 2.529 5.6 2.466 6.018 2.731 5.447 3.467 5.641 12.575 5.676 14.234.15 7.038-2.767 6.8-4.113 16.931a49.548 49.548 0 00.259 15.282c.736 4.074 1.31 4.106 2.247 8.158 1.065 4.606 3.192 13.8-.684 23.008-1.305 3.1-3.314 7.871-8.063 10.558-3.635 2.058-5.817 1.162-11.2 3.962-2.873 1.495-5.417 2.819-7.259 5.51-2.687 3.925-.747 6.183-2.565 12.993-.864 3.235-2.584 9.684-7.909 12.71-2.578 1.465-5.2 1.675-8.678 1.951a41.593 41.593 0 01-9.352-.5c-6.02-.8-10.719-1.86-12.474-2.269-9.234-2.153-11.279-3.515-15.146-2.411-2.737.782-1.873 1.51-6.077 3.429-5.016 2.29-9.668 2.815-15.725 3.453a59.42 59.42 0 01-6.456.462c-4.643.017-9.9-.763-21.165-5.141-7.946-3.087-11.919-4.631-17.015-7.6-13.684-7.975-21.6-18.11-25.813-23.608-9.027-11.786-14.276-18.124-15.136-27.865-.527-5.967.93-8.669 4.763-24.131a489.422 489.422 0 005.65-25.692" class="cls-1" data-name="Path 27" transform="translate(-127.512 -36.098)"/><path id="Path_28" d="M332.207 136.915c3.226 4.1-.319 11.254 1.05 24.77.192 1.9 1.748 19.887-9.7 35.689-3.52 4.859-8.537 8.815-18.571 16.728-7.821 6.168-11.844 9.284-17.361 10.838-8.707 2.453-9.891-1.223-19.415 1.6-4.732 1.4-9.105 3.7-17.054 7.863-6.277 3.29-5.729 3.4-7.634 4.023-8.336 2.709-16.393-.274-21.427-2.214-2.7-1.04-7.108-3.648-15.927-8.863-6.886-4.072-11.344-6.989-16.707-7.139-.85-.024-4.829-.064-6.609-.081-6.161-.057-6.121-.006-6.609-.081-6.381-.985-10.22-9.247-10.92-10.752-2.967-6.385-.2-7.339-3.04-17.156a49.544 49.544 0 00-6.385-13.892c-2.312-3.434-2.85-3.233-5.337-6.566-2.827-3.79-8.471-11.356-8.623-21.342-.051-3.363-.13-8.539 3.138-12.909 2.5-3.345 4.859-3.4 8.66-8.128 2.029-2.523 3.827-4.758 4.432-7.963.882-4.674-1.8-5.961-2.875-12.928-.51-3.309-1.527-9.906 2.132-14.817 1.772-2.378 4.092-3.625 7.162-5.275a41.6 41.6 0 018.763-3.305 131.13 131.13 0 0112.334-2.936c9.321-1.741 11.741-1.315 14.838-3.881 2.192-1.816 1.108-2.135 4.186-5.583 3.672-4.113 7.72-6.464 13.01-9.483a59.373 59.373 0 015.725-3.017c4.245-1.882 9.368-3.279 21.446-3.8 8.517-.367 12.775-.551 18.635.12 15.736 1.8 27.059 7.9 33.126 11.241 13 7.163 20.357 10.857 25.062 19.431 2.882 5.252 2.633 8.311 5.339 24.01a493.037 493.037 0 005.155 25.8" class="cls-1" data-name="Path 28" transform="translate(-127.637 -36.242)"/><path id="Path_29" d="M127.059 171.582c1.5-12.026 4.535-18.43 6.731-35 .9-6.788.946-9.9 0-13.462-1.266-4.765-3.371-6.8-3.59-12.116a16.315 16.315 0 011.346-8.077c1.979-4.123 4.476-3.839 8.078-8.077 3.771-4.439 2.062-5.962 6.283-12.116a38.47 38.47 0 018.078-8.526c4.758-3.7 6.147-2.444 9.424-5.385 4.909-4.406 2.893-7.793 7.18-11.667 4.176-3.773 10.065-4.153 15.258-4.487 7.426-.479 11 1.368 13.912-1.346 2.241-2.087 1.588-4.537 4.039-5.833 2.172-1.149 4.065.044 8.078.9a41.262 41.262 0 0014.809 0c6.14-1.216 6.39-3.245 11.219-3.141 2.774.06 3.116.738 8.526 1.346a74.3 74.3 0 008.078.449c6.25.049 6.266-.639 9.872-.449 3.378.179 4.292.832 12.566 3.141 8.754 2.444 7.548 1.662 10.321 2.692 7.1 2.637 8 5.159 15.258 8.526 7.914 3.672 8.5 1.446 12.117 4.039 6.492 4.66 3.931 11.383 9.873 26.924 4.692 12.273 7.679 11.713 8.078 18.847.474 8.48-3.507 13.54 0 18.847 2.09 3.163 4.371 2.677 6.732 6.731.209.359 4.042 7.12 1.346 11.218-2.569 3.906-8.539 1.549-10.322 4.936-1.333 2.534 1.512 4.794 4.039 13.462 1.4 4.8 2.1 7.207 1.8 9.872-.732 6.38-5.317 6.71-8.526 14.808-.54 1.361-1.257 5.395-2.693 13.462-1.635 9.19-1.426 9.45-2.244 10.77-2.983 4.814-7.362 3.936-15.258 8.974-6.85 4.372-5.23 6.1-10.77 9.424-4.98 2.986-8.989 3.2-23.784 4.487-12.241 1.061-18.362 1.591-19.745 1.8-18.1 2.665-19.412 6.789-29.618 5.833-9.32-.873-9.835-4.462-19.3-4.487-10.341-.027-11.391 4.256-18.4 3.141-9.442-1.5-9.185-9.542-22.438-16.6-9.128-4.863-11.495-2.246-19.746-7.629a41.167 41.167 0 01-13.912-14.808c-5.354-10.14-4.111-20.091-2.695-31.423z" class="cls-2" data-name="Path 29" transform="translate(-123.602 -33.045)"/><path id="Path_30" d="M316.045 66.554c4.1 11.4 4.3 18.487 9.835 34.259 2.269 6.461 3.637 9.258 6.091 12.005 3.285 3.677 6.085 4.543 8.684 9.18a16.318 16.318 0 012.454 7.812c.1 4.572-2.255 5.448-3.549 10.858-1.355 5.665.859 6.249-.12 13.647a38.47 38.47 0 01-3.346 11.258c-2.571 5.448-4.376 4.96-5.968 9.066-2.385 6.15.946 8.259-1.124 13.653-2.016 5.254-7.1 8.258-11.576 10.9-6.406 3.787-10.426 3.755-11.8 7.495-1.054 2.875.637 4.764-.962 7.03-1.417 2.007-3.645 1.8-7.61 2.854a41.25 41.25 0 00-13.206 6.7c-4.925 3.862-4.23 5.785-8.584 7.877-2.5 1.2-3.112.751-8.213 2.657a74.3 74.3 0 00-7.406 3.255c-5.6 2.784-5.3 3.4-8.6 4.867-3.093 1.369-4.2 1.2-12.627 2.884-8.913 1.781-7.483 1.933-10.423 2.269-7.52.859-9.47-.98-17.465-.7-8.719.306-8.239 2.559-12.633 1.88-7.9-1.218-8.656-8.372-20.987-19.543-9.738-8.821-12.148-6.972-15.732-13.152-4.26-7.348-3-13.661-8.528-16.807-3.3-1.875-5.11-.41-9.049-2.957-.349-.225-6.826-4.521-6.277-9.395.524-4.645 6.914-5.245 6.971-9.072.043-2.863-3.518-3.591-9.693-10.178-3.423-3.651-5.134-5.476-6.068-7.992-2.234-6.02 1.706-8.389.9-17.063-.135-1.458-1.32-5.38-3.69-13.223-2.7-8.936-3-9.072-2.872-10.619.482-5.643 4.784-6.841 9.546-14.907 4.131-7 1.9-7.808 5.341-13.277 3.09-4.916 6.566-6.925 19.18-14.763 10.437-6.485 15.655-9.727 16.8-10.534 14.936-10.566 14.239-14.837 23.773-18.6 8.707-3.439 10.79-.47 19.239-4.729 9.234-4.655 8.232-8.95 14.987-11.126 9.1-2.932 12.509 4.353 27.523 4.654 10.341.207 11.267-3.2 21.061-2.131a41.165 41.165 0 0119.107 6.911c9.357 6.614 12.751 16.051 16.616 26.797z" class="cls-2" data-name="Path 30" transform="translate(-122.854 -29.631)"/><ellipse id="Ellipse_1" cx="75.392" cy="75.387" data-name="Ellipse 1" rx="75.392" ry="75.387" transform="translate(34.738 33.634)" fill="#fff"/><path id="Line_1" d="M110.129 195.626V22.415" data-name="Line 1" stroke="#fff" stroke-miterlimit="10" stroke-width="1.372" fill="#15bde8"/><path id="Line_2" d="M140.899 100.756L0 0" class="cls-5" data-name="Line 2" transform="translate(39.68 58.643)"/><path id="Line_3" d="M0 86.605L150.014 0" class="cls-5" data-name="Line 3" transform="translate(35.122 65.718)"/><ellipse id="Ellipse_2" cx="71.503" cy="71.498" data-name="Ellipse 2" rx="71.503" ry="71.498" transform="translate(38.627 37.523)" fill="#15bde8"/></g><text id="_30_" data-name="30%" transform="translate(108.544 127.152)" font-size="53" font-family="UtopiaStd-Disp,Utopia Std" fill="#fff"><tspan x="-45.103" y="0">30%</tspan></text></g></svg>