<svg xmlns="http://www.w3.org/2000/svg" width="193.224" height="265.907"><g data-name="Layer 2"><g data-name="Layer 1"><path d="M23.424 97.985c.806 0 2.267-1.514 2.807-1.86-.716-.185-2.647 1.182-2.807 1.86zm1.957.053c-1.018.691-2.267 1.258-2.9 1.771-.027-1.142 2.418-2.143 2.9-1.771zm3.79-4.428c-.735.523-1.328 1.213-2.356 1.948-.2-.8 1.993-2.072 2.356-1.966zm-4.942 2.125a10.031 10.031 0 013.658-3.2c-1.355.877-2.294 3.055-3.658 3.179zm9.051-7.563c-.593.416-.257 1.027-.983 1.426-.886.142-1.771.319-2.657.39-3.666 1.2-5.243 4.649-7.182 7.466-.234-4.765 6.6-8.83 10.824-9.281zm-3.684-1.213a4.366 4.366 0 012.71-.832c-.753.31-1.8 1.125-2.71.832zm3.6-2.967c-.77.2-1.594.62-2.267.345.821-.397 1.627-.778 2.273-.344zm8.67-15.941c.585-.655 1.9-.328 2.657 0a3.675 3.675 0 01-2.657-.018zm-10 12.8c-.443.673-1.284.8-2.179 1.063s-1.771 2.179-3.029 1.771c1.346-1.55 3.5-3.33 5.207-2.852zm5.314-5.066a2.887 2.887 0 012.5.275c-.85-.062-1.842.638-2.506-.292zm-2.356 1.957a3.831 3.831 0 012.754-.487 2.852 2.852 0 01-2.763.469zM32.282 80a9.149 9.149 0 00-4.818 2.037c-.062-1.638 3.569-2.843 4.809-2.055zm8.511-6.031c.5.319 2.276 0 1.957.629-.629 1.222-1.7.151-2.489.3a12.4 12.4 0 00-7.616 1.594c-1.568.939-3.02 2.834-4.508 3.365 1.771-3.277 6.713-5.907 10.211-5.8.912-.549 1.576.142 2.435-.106zm-16.1 16.074c.106-1.2 2.657-2.117 3.339-2.214-.939.354-2.489 2.249-3.348 2.2zm4.587-3.817a30.651 30.651 0 00-3.835 2.347c.133-1.337 2.816-2.232 3.826-2.365zm-5.314 5.641c.5-1.018 2.657-2.745 3.879-2.577-1.4.7-2.843 2.878-3.879 2.559zm6.446-12.96c.708-.531 2.427-1.4 3.339-1.063-1.116.374-2.4 1.57-3.339 1.063zm-.638 6c-.762-.062-1.7.8-2.586 1.328-.353-.976 2.536-1.928 2.587-1.321zm6.421-6c-1.16.31-1.771 1.24-2.8.708a2.993 2.993 0 012.801-.697zm-8.511 4.88c3.622-2.8 6.66-1.594 9.441-2.019.257.514-.292.886-.487 1.284-2.4-.381-5.721-.886-8.334 1.1-1.222.939-1.541 2.2-2.657 3.286-.141-1.531 1.028-2.852 2.038-3.64zm29.411-17.2a40.234 40.234 0 00.655 6.5 5.606 5.606 0 01-.654-6.488zm-8.856 17.066a5.243 5.243 0 01-.629 2.542c.018-.806-.213-2.276.593-2.542zm.487 3.126c-.257 1.3-.381 3.241-1.833 3.914.683-1.245.7-3.167 1.831-3.902zm1.1-14.01c-.487 1.683 1.187 4.286 1.063 6.2-1.134-1.488-2.5-4.933-1.063-6.208zm-1.975 7.466a6.987 6.987 0 01-1.142-3.472c.965.407.886 2.435 1.142 3.463zm2.173 6.472c-.319 1.089-.337 2.241-1.337 3.2a4.3 4.3 0 011.337-3.2zm-1.975-11.982c.221 1.47.886 3.038.832 4.428-.894-1.134-1.7-3.25-.832-4.437zm-7.2 14.985c-.523-1.5-.992-2.976-.523-4.278a7.289 7.289 0 01.523 4.269zm-.549 5.562a7.891 7.891 0 01.682-3.914c.283 1.4.558 2.807-.682 3.906zm11.557-10.751a8.7 8.7 0 01.585-4.047 5.12 5.12 0 01-.589 4.05zm-8.856-4.34c.469 2.568 1.55 6.252.735 8.945.31-2.79-2.17-6.766-.726-8.945zm8.794-9.68c-.549 2.435.328 5.163.292 7.7-.792-2.507-2.474-5.819-.296-7.694zm3.8 13.851a9.556 9.556 0 011.382-2.267c.562.668-.448 2.822-1.386 2.271zm10.911-24.186c.646 1.771-.735 3.976-1.3 5.872a9.157 9.157 0 011.3-5.872zm.886 10.627a2.054 2.054 0 01-.886 2.489c.372-.85.151-1.78.868-2.524zm-4.251 10.14c.788-1.771 2.657-3.4 3.48-5.2a7.138 7.138 0 01-3.5 5.163zm1.886-8.768a6.137 6.137 0 01.1-3.914 4.428 4.428 0 01-.115 3.879zm4.197-3.538c-.363-3-.071-6.492 1.771-8.67-.523 2.869-1.435 5.686-1.754 8.626zm-1.213 4.269a15.055 15.055 0 01.673-2.179c.469.328-.133 1.993-.691 2.134zm-6.483-8.6c-1.771 1.612-.54 4.818-.638 7.165-1.886-2.657-1.63-6.385.283-8.281.673.071-.345.956.337 1.072zm-2.754 1.063a39.8 39.8 0 00.558 6.943c-1.284-1.452-1.833-5.429-.576-6.988zm-3.091 8.4c-.779-1.355-.965-2.586-.31-3.658-.044 1.151.859 2.515.292 3.613zm13.01-13.541l.266-.177a53.239 53.239 0 00-1.452 8.856 10.2 10.2 0 011.182-8.674zM57.375 84.13a12.4 12.4 0 011.922-3.782c-.253 1.218-.926 3.494-1.926 3.786zm-15.888-1.594c.593.948.434 2.657.708 3.968.531 1.3.77 3.162 0 3.826.235-2.582-1.226-5.106-.712-7.79zm-1.47-14.064c-1.355.576-2.834 1.771-4 1.506.967-.784 2.897-1.687 3.996-1.501zm12.691-8.785c-1.771.292-2.9 1.08-4.623 1.151 1.262-1.253 3.255-1.315 4.618-1.147zm-2.719 3.728c.523-.717 1.771-.452 2.444-.08a3.64 3.64 0 01-2.448.085zm.1-1.594c-.549.416-.939 0-1.523.62-1.151-.443-3.8.558-4.047-.593 1.79.305 3.774-.35 5.563-.022zm-1.3 1.24a27.711 27.711 0 01-5.872.434c2.161-1.182 3.986-.615 5.863-.429zm7.28-7.909c1.222-1.027 3.109-.54 4.428-.257-1.473.076-3.073.758-4.437.262zm-3.542 1.373a5.2 5.2 0 014.72-.434c-1.514-.062-3.188.585-4.7.434zm7.7 2.019c-1.612 1.089-2.737-.221-4.092-.363a13.807 13.807 0 00-9.308 2.515c-.275.292.062.709-.54.886-.363-.381-.319-.682-.487-1.018 3.87-3.259 10.078-4.322 14.444-2.019zM39.681 70.252c-1.054.434-2.329.6-3.6 1.231s-2.232 1.993-3.48 1.771c1.807-1.913 4.871-3.41 7.1-3zm14.71-8.608a9.227 9.227 0 01-2.852.345 2.8 2.8 0 012.869-.345zm-13.479 8.387a3.339 3.339 0 012.365-.221c-.847.225-1.688.606-2.379.225zm-2.728 2.586a15.281 15.281 0 00-3.542 1.01c-1.452.576-2.533 2.4-3.7 2.267-.257-1.479 2.028-1.674 3.215-2.71 1.241-.244 3.332-1.448 4.013-.563zm4.729-6.2c-1.125.788-1.975.221-3.162 1.328-.027-1.482 2.352-1.456 3.149-1.323zm8.732-1.931c-.221.452-1.018.788-1.072 1.284a20.723 20.723 0 00-9.3-.381c-1.275.248-2.4 2.657-4.286 3.419-.071-1.364 2.241-2.249 2.9-3.463 3.79-1.966 8.1-1.727 11.752-.894zm-18.376 36.443c-.089-.886-.5-2.71.186-3.782a5.9 5.9 0 01-.186 3.746zm26.63-46.938a6.739 6.739 0 013.914.1c-1.249.018-3.232.762-3.914-.124zM35.412 97.767c.372-.62.044-1.382.629-1.957.275.646.115 1.851-.629 1.931zm-.354-3.427c-.691-.8 0-1.3-.611-2.09l.4-.266c.6.434.372 1.638.213 2.329zm-1.2-.939a2.728 2.728 0 01-.053 2.542c-.1-.894-.523-1.833.018-2.568zm.788 5.836c-.328-.673 0-2.152.275-3.073.558.691.133 2.134-.275 3.02zm.779-9c1.24-.142.992 2.037.62 2.657a8.356 8.356 0 00-.62-2.683zm1.16-1.771a2.506 2.506 0 01.611 3.25c.248-1.054-.965-2.489-.611-3.232zm-12.806 14.081c-.39.726-1.869 1.24-1.692 2.09 0-.142.832-.788 1.107-.354-.832.239-1.134 1.01-1.824 1.594-.23-.744.478-.886-.044-1.514.735-.531 1.452-1.692 2.453-1.8zm37.718-47.336a3.419 3.419 0 012.71.319 4.348 4.348 0 01-2.71-.319zm-39.853 47.974a4.428 4.428 0 012.657-2.134c-.638.266-1.621 2.347-2.621 2.134zm2.542 2.365c-2.657 1.266-1.833 3.25-3.179 4.8a4.907 4.907 0 013.445-5.553c-.053.248-.372.452-.23.753zm4.136-.434a16.738 16.738 0 01.762-3.79 5.4 5.4 0 01-.726 3.79zm1.426-2.5a13.062 13.062 0 01.328-3.286 2.781 2.781 0 01-.292 3.286zm28.446-75.171c-1.532-2.019-2.657-4.623-4.924-6.2.106-.319-.682-1.125-.133-1.125a13.4 13.4 0 015.057 7.324zm4.313.762a39.048 39.048 0 00-5.181-7.4l.3-.372.381.3c2.117 1.886 2.7 3.95 4.322 5.9-.282.492.94 1.413.169 1.582zm.124-2.985c.682.762 1.488 1.506 1.408 2.356-.788-.282-1.806-1.531-1.415-2.346zm3.463 12.4a17.2 17.2 0 01-1.824-5.96 11.407 11.407 0 011.824 5.96zM54.723 19.963c.443-.354.186-.717.593-.753 1.771 2.985 4.242 5.907 5.367 8.98-2.011-2.737-4.039-5.473-5.969-8.218zm-18.952 8.095c-1.134-.611-2.32-1.647-3.463-2.356.124-.159 0-.3.168-.469 1.709.965 2.613 1.328 3.294 2.825zm-9.113-4.791a9.334 9.334 0 015.021 1.939c-1.523-.5-4.18-.841-5.021-1.939zm3-1.718c1.7.576 4 1.027 5.42 2.471-1.692-1-4.711-.5-5.42-2.471zm9.219 5.695c-.682-1.063-2.843-1.966-3.091-3.073 1.32.54 2.887 1.816 3.091 3.073zm14.427-.611c.558.735 1.275 1.452 1.284 2.249-.6-.302-1.61-1.427-1.291-2.242zM28.215 22.86c.4-.31-.159-.514.248-.824 1.939.983 3.764.983 5.792 2.754a28.1 28.1 0 01-6.048-1.922zm-11.717 5.473c.638-.886 2.409-.124 3.542.159-.627.938-2.425-.085-3.549-.151zm2.533 1.2c-1 .54-2.179-.452-3.259-.549.531-.85 2.179-.151 3.259.523zm-8.493 1.647c.124-.168 0-.3.177-.478.886.416 1.594 0 2.48.744-.815.434-1.745.044-2.657-.292zm11.77-5.6l.3-.372c.965.8 1.771.142 2.763 1.169a4.047 4.047 0 01-3.071-.791zm-1.151.93a.461.461 0 01-.044-.443c.93.124 1.771-.2 2.834.815-.824.416-1.8-.071-2.745-.372zm23.823-2.816c-1.9-1.55-4.614-3.773-6.4-4.065a.514.514 0 01-.053-.452c2.779.449 4.745 2.46 6.445 4.523zM63.824 36.86a40.9 40.9 0 01-1.674-5.633c.889 1.763 2.235 4.075 1.674 5.633zM46.696 22.823c-1.63-.886-3.994-2.338-5.969-3.321l.292-.372c1.705.709 4.626 1.977 5.68 3.693zm-3.666-4.154a27.536 27.536 0 015.641 3.472 15.329 15.329 0 01-5.639-3.471zm19.058 17.022c-.939-1.532-1.072-3.153-1.568-4.738.704 1.745 1.872 3.312 1.571 4.738zm-6.952-2.869c-1.55-2.1-2.551-4.083-3.87-5.951a12.522 12.522 0 013.87 5.951zm5.314 1.771c-.611-.514-1.3-2.577-.939-3.206.23 1.107 1.213 2.1.974 3.224zm-9.361-2.931c-1.426-.292-2.187-2.435-2.657-3.542a14.17 14.17 0 012.692 3.56zm2.161.886c-1.647-1.435-2.816-3.64-4.047-5.473 1.8 1.807 3.649 3.578 4.092 5.5zm-6.7-4.711c.886 1.036 1.957 2.055 2.187 3.17-1.018-.54-1.638-2.134-2.152-3.144zm-3.162-3.755c-2.427-2.551-5.19-2.816-7.085-4.216l.31-.381c1.948.62 5.349 2.09 6.81 4.623zm4.2 2.489a3.064 3.064 0 01-1.258-2.028 2.781 2.781 0 011.255 2.026zm-1.674.3c-.372-.717-1.027-1.408-.939-2.179.354.762 1.373 1.4.939 2.214zm-29.376 8.856c1.063-.328 2-1.833 3.1-1.833-.88 1.213-2.43 2.019-3.103 1.833zm25.024-1.82c-.824 1.266-2.852 3.419-3.746 5.225.177-1.856 1.585-4.689 3.746-5.225zm4.986 8.688c-.4.531-1.665 2.108-2.524 1.878.842-.599 1.6-1.966 2.524-1.874zm-7.085-8.909c-.3 1.461-2.79 2.763-3.241 4.6-.487-1.346 1.789-4.393 3.259-4.632zm-6.731 5.1c1.55-1.771 2.489-5.464 4.8-4.995-2.072 1.373-2.958 4.711-4.782 4.995zm2.143 4.782c1.018-.735 2.214-2 2.931-2.382-.08 1.4-1.931 2.258-2.914 2.382zm26.568-2.444c-1.771.39-3.064 2.382-4.552 3.144 1.036-2.01 2.683-3.835 4.561-3.144zm-2.542 4.738c1.134-.381 2.205-1.346 3.33-1.86.381 0 .956-1.568 1.771-.655a12.266 12.266 0 01-5.562 3.374c.461-.257.478-.416.469-.859zm-15.667-2.214c-.965 1.045-3.542 3.357-4.056 2.515 1.408-.407 2.6-2.772 4.065-2.515zm6.713-8.183c-2.117 1.86-3.9 4.782-6.589 7.262 1.886-2.1 3.737-7.421 6.6-7.262zm7.085 12.213c-.886.452-1.683 1.231-2.657.753.85-.31 2.125-1.444 2.683-.753zm6.323-5.633c-1.922 1.125-3.8 2.71-5.774 3.4 1.5-1.169 3.746-4 5.8-3.4zm-30.89 1.461c1.506-.744 2.949-2.985 4.747-3.4-1.054 1.4-3.472 3.6-4.72 3.4zm11.681-8.971c-1.984 1.311-3.463 3.542-4.9 5.128a35.836 35.836 0 011.665-3.392c1.05-.845 1.998-2.572 3.237-1.731zm-8.608 4.632c-.8 1.01-2.391 2.852-3.684 2.816.4-.363 2.5-2.754 3.684-2.825zm-14.586.292c.6-.7 2.294-.584 3.3-1.063a2.5 2.5 0 01-3.3 1.054zm4.127-2.869c.576-.886 1.036-4.038 2.3-2.887-1.275.9-.877 3.047-2.3 2.878zm1.089 2.5a3.073 3.073 0 01-3.082 1.036 4.233 4.233 0 013.082-1.045zm2.595-2.232c-.221.744-1.266 2.019-1.975 1.709-.009-.788 1.231-1.638 1.975-1.718zm-.257-2.258a2.985 2.985 0 012.081-1.833c-.319.6-1.373 1.771-2.09 1.824zm-1.08 9.6c-.514.381-2.125 1.027-2.055 0 .673.275 1.709-.708 2.055-.009zm3.8-3.737c-.886 1.24-1.975 1.337-2.976 1.931a.443.443 0 01-.177-.549c1.151-.133 2.276-1.674 3.153-1.39zm-4.2 2.187c-.886.407-2.285 1.32-2.931.337.921-.1 2.3-.956 2.931-.345zm.3-7.342c-.5-.886.77-2.134 1.6-2.01a6.864 6.864 0 01-1.6 2zm4.632-2.471c.142 1.089-1.771 3.047-2.772 2.719a9.441 9.441 0 012.772-2.728zm22.22 3.746c-1.479.514-2.861 4.154-4.348 4.951.748-1.68 2.634-6.162 4.352-4.948zm4.012 1.142c-2.028.983-3.392 3.658-4.649 5.314.213-1.692 2.5-6.066 4.667-5.314zm-10.893 3.64c.983-.744 1.417-2.657 2.294-3.923.638-.886 1.514-2.205 2.657-1.559-1.674.567-3.082 5.314-4.933 5.482zm8.768-4.313a49.718 49.718 0 00-3.906 4.9c.089-1.461 2.019-5.323 3.923-4.9zm-6.66 5.783c-.345.638-.762.62-1.125 1.151-.585.124-2.179 1.258-2.1.585 1.24-.452 2.205-2.063 3.241-1.736zm58.455 12.862c-4.428-2.32-8.962-3.454-13.47-4.835-3.888-2.657-7.235-5.695-7.643-10.131 1.116 1.408 1.559 3.011 2.781 4.579 5.075 6.5 12.213 4.428 17.712 8.174-.053.655.824 1.9.655 2.338.018-.027.009-.027-.044-.124zM86.605 25.338c-.062-.115 0-.221.142-.328 1.727 4.428 6.111 6.421 9.547 6.66a4.552 4.552 0 001.01 1.452c-3.6-.354-9.972-2.878-10.68-7.785zm7.014 26.143c-1.922 0-4.428-1.966-5.225-3.994 1.656 1.745 3.932 2.9 5.243 3.994zm-2.241 5.836c-1.231 0-1.771-1.426-2.754-2.294l.363-.31a19.962 19.962 0 012.391 2.605zm-.717 1.647c5.633 7.085 11.885 10.486 18.474 10.069.708.611 1.488.354 2.2.886-.186.443.381.948-.115 1.355-2.055 0-4-1.063-6-1.674-2.037-.151-4-1.063-6-1.665a35.044 35.044 0 01-9.016-8.776.461.461 0 010-.452.779.779 0 00.5.257zm13.337 11.886c-.053-.115 0-.23.142-.328 2.055 1.275 4.251.886 6.252 2.719-1.851.275-3.542-1.559-5.314-1.612-.345-.557-.754-.222-1.08-.779zm4.26 4.6c1.382.39 3.41.071 3.844 1.594a32.052 32.052 0 01-7.731-2.737l.372-.31c1.23.31 2.293 1.104 3.515 1.449zM93.849 64.486a6.589 6.589 0 01-2.471-2.489c-.053-.124 0-.23.142-.328.806.956 2.462 1.948 2.329 2.816zm10.131 7.847c2.657 1.027 5.969 1.169 8.165 3a46.531 46.531 0 01-8.431-2.568c.151-.142.062-.3.266-.434zm-6.66-18.7a7.4 7.4 0 01-2.2-.886c.151-.133 0-.3.266-.425.571.444 1.775.485 1.938 1.303zm2.559-4.428l.5-.416a11.9 11.9 0 014.286 1.4c.886.461 2.657 1.045 1.771 2.09-2.134-1.559-4.348-2.187-6.554-3.082zm6.483 12.983c-.886-.6-2.4-.089-2.861-1.169a7.917 7.917 0 016.022 1.444c-1.099.417-2.099-.327-3.16-.283zm-4.357-3.463c1.355-.762 2.577.106 3.888-.115.886.7 3.215.691 2.985 2.32-2.254-1.223-4.605-1.336-6.872-2.213zm6.1-.717a30.552 30.552 0 01-5.535-1.851c1.444-.806 4.3.221 5.526 1.851zm-5.216-9.91a11.734 11.734 0 00-3.348-.753.443.443 0 01-.062-.576 9.007 9.007 0 016.748 2.311c-1.157.639-2.131-1.158-3.336-.99zm-8.183 6.2c-2.276-.62-4.216-2.294-5.987-4.694.151-.142 0-.3.266-.434 1.842 2.311 3.826 3.542 5.765 5.154zm7.971 9.024c-3.206-.948-6.589-1.665-9.255-4.809-1.709-2.037-3.1-4.428-4.862-6.81.151-.177 0-.381.159-.558 3.472 4.047 5.827 7.74 10.627 10.4 4.118 1.089 8.281 1.612 12.4 2.807-.151.593.372 1.24.523 1.86-3.179-.664-6.323-2.373-9.547-2.861zm-1.553 2.385c.948.5 1.931.523 2.861 1.16a2.6 2.6 0 01-2.861-1.16zm6.3 2.267a4.871 4.871 0 01-2.418-.664c1.523-.531 2.931.345 4.357.956-.708.638-1.293-.071-1.913-.292zm2.241-.832c-2.17-.461-4.924-1-6.607-2.657 2.055 1.249 5.42.762 6.633 2.657zm8.1-16.6a10.9 10.9 0 01-2.737 7.731c.572-2.602 1.865-5.135 2.733-7.73zm-8.971-5.464c-.089-3.162 1.948-6.128 2.3-9.255-.1-.168.071-.186.248-.2a.886.886 0 01.186.469 19.972 19.972 0 01-.983 4.587c-.48 1.557-.755 3.248-1.756 4.4zm-5.633-9.742c.62-2.187.6-5.039 1.408-6.828-.133 2.249.983 5.19-1.408 6.846zm2.134-2.205a16.579 16.579 0 00.487-4.171c.159-.1.328-.319.469-.186.106 2.9.239 5.792-1.665 8.511-.638-1.444.824-2.745.708-4.136zm.753 6.9c.275-3.542 1.771-6.908 1.771-10.441.115-.053.248-.195.345-.08.089 1.187.2 2.373.257 3.542a24.9 24.9 0 01-.886 3.684c-.381 1.222-.328 2.9-1.488 3.312zm3.928 8.676c-.886-2.427 1.142-4.605 1.771-6.908.328-2.32 1.116-4.605 1.072-6.961.151-.142 0-.3.266-.434l.407.487c0 2.4-.567 4.738-.744 7.085-.85 2.199-1.364 4.963-2.772 6.731zm1.284 3.542c-.886-1.151.416-2.241.886-3.224a25.229 25.229 0 00.983-3.33c.611-2.232.815-4.49 1.506-6.7a21.371 21.371 0 000-3.764l.363-.31c.3.257 0 .461.4.717 0 1.523 0 3.038.053 4.57-.522 2.037-.886 4.1-1.576 6.12s-1.089 4.455-2.639 5.925zM99.968 21.518c.221.133.443.159.664.283.089 2.657.886 5.4-.478 7.971-.434-2.32.3-5.553-.213-8.263zm-1.231 1.027c.124-.053.248-.195.354-.08.283 2.152 1.063 4.348-.567 6.332-.133-2.108.416-4.154.186-6.261zm3.729 23.462c-1.346-.275-3.286-.478-4.233-1.063 2.17-.886 4.136.478 6.111 1.771a2.276 2.276 0 01-1.9-.717zm19.377.93c-.248.664 0 1.364-.407 2.01-.46-.24-.345-1.911.407-2.008zm.062 39.056c-.514-1.559.788-2.967 1.3-4.428-.086 1.442-.299 3.455-1.3 4.429zm-.328-18.137c.266 1.514-1.594 4.03-3.48 4.587 1.072-1.536 2.507-3.045 3.481-4.586zm-5.137-17.881l.248-.213c.213 1.922-1.01 4.694-2.427 6.846-.478-2.32 1.461-4.419 2.179-6.633zm.567 12.9c-.266-1.55 1.771-2.878 1.771-4.428.965-1.293.886-3.259 1.771-4.18a.744.744 0 01.186.478c-.751 2.653-1.531 6.549-3.727 8.135zm1.771-23.433a4.534 4.534 0 01-.549 3.6 4.428 4.428 0 01.514-3.587zm1.772 18.165c.611 2.214-.824 4.251-2.046 6.314-.106-2.161 1.364-4.2 2.046-6.3zm-3.2 14.17c0-1.1 1.107-2.1 1.984-3.126.434-1.249 1.674-2.435 2.152-3.684l.248-.2a11.513 11.513 0 01-4.384 7.041zm53.845-.886c.124-.053.248-.195.354-.08-.089.195.469.4.5.886a15.569 15.569 0 00-2.223 8.351c-1.4-3.259.3-6.182 1.373-9.2zm-33.653 6.819c-1.169-.992-2.3-2.267-3.48-3.162l.372-.31c1.063.434 3.232 2.037 3.126 3.463zm1.718-2.657a4.986 4.986 0 01-2.365-1.576c.39-1.2 2.577.558 2.382 1.523zm-4.074 4.88c-1.514-.744-2.249-2.48-3.711-3.179 1.426-1.293 3.578 2 3.728 3.126zm3.773-2.737c-1.01-1.134-2.958-2.161-3.232-3.365 1.346.416 3.1 1.727 3.25 3.312zm-1.984 4.375c2.072 1.072 4.242.939 6.314 2.046-2.037.266-5.2-.195-6.3-2.1zm45.79 15.636c-.886-1.231-.151-3.277.425-4.747 1.234 1.7-.461 3.187-.425 4.747zM136.024 78.36a24.328 24.328 0 00-3.171-2.781l.62-.514c.716.975 2.974 1.984 2.551 3.295zm46.734-4.171c-.106-.159-.319-.328-.186-.469 2.241-.372 5.048-.443 6.678 1.771-2.226-.213-4.253-1.784-6.494-1.302zm5.866-.682c-2.037-.531-4.047-1.426-6.146-1.346 1.646-.939 4.786-.903 6.146 1.346zm-5.641 2c2.329-.23 6.075-.159 7.067 2.427a17.483 17.483 0 00-6.881-1.966c-.292-.1-.39-.221-.186-.5zm2.152 9.033a6.74 6.74 0 016.394 2.391c-.531.416-1 .151-1.514.434-1.077-2.026-3.336-1.769-4.877-2.823zm1.659-3.266c.186.142.39-.089.576-.062.7.337 3.542.886 2.985 2.311-.673-.832-3.331-1.16-3.561-2.249zm-1.1 2.179a.434.434 0 01-.062-.576c1.771.168 3.64.062 5.314 1.842-1.822.301-3.443-1.47-5.25-1.267zm-39.056-7.909c-1.621-1.9-2.825-4.012-4.968-5.677 2.119-.646 4.616 3.808 4.971 5.677zm12.4-.948c-1.479-2.338-.39-5.429-2-8.157.151-.142 0-.3.257-.434 2.5 2.187 1.488 5.889 1.727 8.59zm-2.232.824a6.031 6.031 0 011.382 3.658 4.757 4.757 0 01-1.4-3.658zm3.932 1.718c.523.709 1.373 2.382.948 3.392-.698-.723-1.562-2.409-.946-3.392zm-6.483-11.513c2.6 1.541 2.878 5.473 2.152 7.829a38.879 38.879 0 00-2.152-7.829zm5.385.93c.151-.133 0-.3.266-.425a.452.452 0 00.549-.062c1.594 3.135.54 6.049.452 9.033-1.036-2.48.434-5.65-1.284-8.546zm-10.495 10.238c.54.709 1.408 2.285 2.205 3.383-.469.593-.832 0-1.249 0 .133.593-.886.142-.664-.292s.425.354.682.062c-.664-.965-.726-1.886-1.337-2.852zm3.418 2.577c-.779.3-1.833-1.833-1.709-2.542.746.691 1.747 1.523 1.711 2.542zm30.326-9.263c.886-.753 4.34-.159 3.968 1.488-1.267-1.126-2.633-1.126-3.968-1.488zm-39.082-1.187l.5-.416c2.338 1.089 3.542 4.508 3.976 6.5-1.536-1.834-2.794-4.606-4.476-6.085zm3.737 7.971c.115 1.072 1.612 2.267 1.532 3.321a3.24 3.24 0 01-1.532-3.33zm-1.576-9.14c.39-.567.691-.142 1.063-.478 1.275 2.657 3.294 5.314 3.41 7.82-1.4-1.993-2.648-4.951-4.472-7.351zm7.085 9.166c-1.6-3.286-2.967-7.085-4.809-10 .886.213 1.709 1.293 2.533 2.276a6.2 6.2 0 00.974 1.913c-.151 1.815 1.931 3.79 1.258 5.8zm-11.266-10.91c-.461-.248-.31.487-.735.62a6.2 6.2 0 011.142-5.145c.293 1.548-.787 2.965-.407 4.525zm36.045.8c2.834-1.957 7.014-3.144 8.36-.514-2.71-1.222-5.553.124-8.36.514zm-31.794-2.48c-.469-2.267 1.116-4.224 2.471-6.049a10.043 10.043 0 012.072-1.523c.283.886-1.771 1.692-1.612 2.816-1.842 1.426-1.683 4-2.931 4.756zm10.247-12.757c.115-.053.23 0 .328.142a43.758 43.758 0 00-3.666 5.367c-.576-1.913 1.531-4.18 3.338-5.509zm-.4 4.517c-.478-2.551 2.914-7.041 6-6.075-2.837.743-4.918 4.481-5.999 6.075zm-12.735 3.542a3.9 3.9 0 011.435-2.063c.339.655-.672 2.285-1.434 2.063zm7.386 2.825a8.121 8.121 0 013.2-3.932c-.17 1.249-1.612 3.897-3.199 3.932zm-18.483 5.42c-1.072 1.842-.708 4.428-1.55 5.9-.255-1.888-.158-4.952 1.552-5.9zm-2.125 3.454c.186 1.08-.478 2.081-.735 3.126-.548-1.115.125-2.116.736-3.126zM95.186 43.077c.62.106 2.2.726 2.037 1.435-.673-.08-2.143-.62-2.037-1.435zm67.484 23.912c1.948 2.2.213 5.021-.089 7.395 0-2.515.062-4.977.089-7.439zm-25.594 2.09c.195-1.47.629-3.542 1.878-4.508-.39 1.453-.461 3.968-1.878 4.508zm3.356-5.739c.469 1.116-.2 3.091-.886 4.481-.859-1.116.035-3.073.886-4.446zm7.758-.221c.593-1.479 1.931-4.543 3.959-4.773-.673.886-1.213 1.869-1.842 2.8-.363.735-.912 2.754-2.117 2.01zm10.752-5.612c.062 1.187-1.151 2.843-1.568 3.613-1.027-.897.726-2.934 1.568-3.613zm22.264 3.339c-1.32-1.373-2.923.363-4.313-.159a6.023 6.023 0 015.314-.664c-.683.147-.735.2-1.001.82zm-7.971 1c-.646.434-2.373 2.037-3.383 2.205-.257-1.258 2.4-2.356 3.4-2.205zm8.856 2.037c-1.55-.053-3.179.788-4.747.832 2.8-1.771 4.818-2.338 7.395-1.169-.6 1.018-1.789.053-2.666.337zm-5.013-1.24c1.975-.77 5.641-2.586 6.651-.549-1.452.186-2.878 0-4.357.292-.8.221-1.621.974-2.311.257zm-7.8-4.57c2.5-2.657 6.669-4.428 8.4-2.214a20.793 20.793 0 00-5.668.974c-1.169.567-1.816 1.364-2.754 1.24zm-7.173-4.047c.292-.6 1.479-1.621 2.028-1.072-.559.618-1.277 1.291-2.03 1.069zm-3.144 7.235c-.089-.886.664-1.771 1.364-2.657.725.565-.675 2.274-1.365 2.655zm6.2-4.8c1.116-2.179 4.623-4.145 6.562-3.4-.664.8-2.2 1.018-3.206 1.417-1.258.514-1.993 1.771-3.321 1.984zm2.143-3.232a23.22 23.22 0 00-5.08 2.978c.234-2.015 3.652-3.539 5.078-2.981zm-.133 4.092c.788-1.638 4.428-3.985 6.128-3.675.124.77.461 0 .886.54-2.028.992-4.171 1.328-6.04 2.533-.604.138-.521 1.157-.976.599zm-33.8 9.875c-.168 1.886-1.063 3.7-1.63 5.553-.51-1.952.322-3.776 1.624-5.556zM92.024 28.553c1.284.54 2.657.523 3.852 1.594-1.23.284-3.515-.292-3.852-1.594zm3.339-7.971c1.018.531.62 1.851.328 2.657a2.524 2.524 0 01-.328-2.7zm-4.1 6.359c.151-.142 0-.3.266-.434 1.178.93 3.011.974 3.808 2.046-1.426.195-2.737-.93-4.074-1.656zm-1.656-3.029c.177.151.381-.089.567-.062 1.107 1.63 3.985 1.231 3.932 3.2a9.517 9.517 0 01-4.499-3.137zm31.227 198.786c.487 2.365 1.2 4.747 1.532 7.085.106 2.365 1.878 4.871.735 7.085a47.824 47.824 0 01-2.807-14.578.886.886 0 00.54.408zM133.702 85.33a5.021 5.021 0 01-3.356-.31 3.294 3.294 0 013.356.31zm-5.872-3.25c.133-.221.159-.443.292-.655 1.169.593 3.02 0 3.8.788a5.854 5.854 0 01-4.092-.133zm.372.948c1.222.815 2.595-.142 3.79 1.018-.761.469-3.604.85-3.79-1.019zm3.029-1.674a18.8 18.8 0 00-2.878-.939c.571-1.47 2.878.044 2.878.939zM87.304 33.371c3.162 6.438 9.644 7.971 14.728 8.6a4.747 4.747 0 01.948 2.134 46.458 46.458 0 00-9.086-2.852c-2.772-2.037-5.978-4.455-6.616-7.882zm7.173 13.851c-.886.381-2.108-.815-2.489-1.47l.363-.31c.673.983 1.436.974 2.127 1.78zm-7.528-7.723l.372-.31c1.178 2.108 2.657 3.542 3.711 5.677-1.93-1.629-2.815-3.427-4.082-5.367zm.3-3.392l.363-.31c.425 1.178 2.515 2.5 2.187 3.613a9.8 9.8 0 01-2.542-3.3zm1.771 4.827c-1.08-1.231-2.161-2.418-1.63-3.454l.239-.2c.646 1.683 2.586 4.074 3.2 5.066-.726.434-1.275-.779-1.833-1.408zm8.52-2.32c1.311.053 3.72.514 4.154 1.957-1.275-.717-3.711-.93-4.18-1.957zm3.224-.4c-1.9.053-3.693-1.169-5.553-1.63 1.931-.638 3.746.31 5.526 1.63zm-13.284-7.9l.372-.31c1.018.886 2.037 1.833 3.064 2.657-1.311.221-2.719-1.089-3.489-2.347zm7.444 3.739c1.231.62 3.542.4 3.932 1.948-1.337-.815-2.772-.469-4.074-1.621a.34.34 0 01.142-.327zm-3.286 1.08c.691.266 1.9.443 2.179 1.1-.664.407-2.32-.407-2.143-1.1zm38.386 42.802l.735-.62c2.019 1.7 2.931 3.622 4.207 5.314 2.94 1.948 6.093 1.47 9.122 2.409-2.6 1.08-5.96-.4-8.794-1.01-.443-.558-.939-.5-1.4-.886-1.831-1.665-2.052-3.622-3.87-5.207zm6.979 7.351c-.965.611-1.833.133-2.737 0 .507-.718 1.907-.266 2.739 0zm38.921 15.755a16.366 16.366 0 01.815-4.03c.331 1.296.323 3.206-.815 4.03zm-.443-6.536a7.386 7.386 0 01-.523-3.117c.877.664.8 2.179.549 3.117zm1.638 5.96a14.427 14.427 0 011.266-3.994c.377 1.258-.216 3.604-1.261 3.994zm-2.8-12.1c-.593-1.417-.319-2.763-.319-4.127a6.428 6.428 0 01.324 4.13zm-3.153-4.233c-.5-.576-.089-1.072-.54-1.638l.452-.452a2.2 2.2 0 01.089 2.09zm7.5 2.657a2.028 2.028 0 01-.177 2.037 2.161 2.161 0 01.177-2.037zm-2.489-10.45c.425 0 .115.283.514.62-1.054 1.957-1.382 4.579-2.595 6.146.45-2.274.528-4.585 2.089-6.764zm-3.436 6.642a27.464 27.464 0 000 2.958c-.292-.921-.779-2.5 0-2.958zm7.581-1.939c0 1.674-1.116 3.241-1.576 4.871-.089-1.541-.08-4.242 1.576-4.871zm-1.328 12.4c.23-1.045 0-2.125.5-3.144a3.525 3.525 0 01-.5 3.153zm-5.907-20.821c.195.345.452.08.638.514-1.771 2.241-1.479 4.649-2.551 6.952a12.009 12.009 0 011.92-7.466zm7.873 17.9a5.172 5.172 0 01.806-4.021 6.2 6.2 0 01-.806 4.047zm-1.134-1.346c-.266-1.514-.275-4.579 1.32-5.925a21.562 21.562 0 01-1.32 5.951zm-4.658-14.312c-1.337 2.081-1.47 4.269-2.161 6.412 0-2.391.062-4.773 1.869-7.005a.886.886 0 01.292.62zm-25.879 9.344a2.161 2.161 0 01-2.347-.549c.407-1.051 2.063.14 2.347.549zm-3.374-1.771a7.97 7.97 0 01-4.384-1.984c.159-.142 0-.3.275-.434 1.2 1.151 3.666 1.116 4.109 2.418zm-6.66-10.964a6.863 6.863 0 011.576-1.107c4.756 3.321 3.906 9.547 8.369 10.99.744-.221 1.435.053 2.179-.151.629.1 1.869-.992 2.055 0a6.6 6.6 0 01-5.668.974c-4.278-1.834-4.287-8.937-8.511-10.708zm26.675 4.871c.726-2.435 2.01-4.827 2.7-7.262a4.614 4.614 0 011.5 1.036c-1.816 4.092-4.428 8.112-1.771 12.6a19.084 19.084 0 012.108 3.259 22.521 22.521 0 012.117 3.038c-1.107.266-1.426-1.2-2.32-2.028a12.4 12.4 0 01-4.331-10.645zm-25.541-1.01c.708.886 1.638 1.355 1.063 2.258-.479-.612-1.79-1.584-1.064-2.26zm3.542 7.274c.8-.08 2.3-.062 2.285 1.222-2.338-.691-4.711-.832-6.97-2.32 1.656-.39 3.153.77 4.72 1.1zm-1.816-3.923l.363-.31a7.793 7.793 0 012.657 2.657c-1.1.275-2-1.5-2.985-2.347zm22.409-2.237c-1.08-2.79-.071-5.393 1.054-7.971.877 2.754-.921 5.287-1.018 7.971zm1.886 7.005c-1.4-.77-2.524-3.277-1.771-4.6a24.284 24.284 0 011.807 4.6zm-4.127-7.43a41.831 41.831 0 011.771 6.084 7.37 7.37 0 01-1.736-6.084zm-4.667 6.421c-1.116.106-3.542-2.2-3.109-3.463a25.08 25.08 0 013.144 3.463zm-6.465-15.72c-.053-.124-.2-.248-.089-.345.514.195 1.116-.54 1.6-.089 3.259 3.2.974 8.67 3.711 12.168 1.771 2.285 4.906 2.4 6.828 3.914a9.822 9.822 0 01-7.793-3.312c-2.17-4.18-1.2-8.086-4.224-12.337zM71.624 52.607a14.329 14.329 0 012.161 3.72 21.776 21.776 0 01-2.94-.6c-4.171-5.145-9.7-3.542-14.993-3.144-6.111 2.17-12.868 7.342-18.182 12.062-2.657 4.26-6.8 7.191-9.281 10.973-2.382 3.6-3.782 7.9-5.314 11.779a55.4 55.4 0 00-3.286 12.186 88.615 88.615 0 00-.974 19.138c.195 1.913-.3 4.711 1.187 6.146a.815.815 0 01.31-.407c-.044.664.4 0 .629-.221a7.768 7.768 0 01.089-1.018c0-.664.319-1.249.275-1.913 2.524-6.934 7.395-13.4 14.462-19.413 9.113-6.554 16.827-8.245 25.267-14.453a13.9 13.9 0 012.94-2.533 60.584 60.584 0 005.9-9.113c1.957-4.233 1.408-8.741 3.41-12.965.886-4.3 1.771-1.7 2.5-1.311.939 2.4 1.408 4.756 2.258 7.156 1.408 5.854 3.9 11.814 5.615 17.712-7.971-.363-18.067 4.685-25.293 11.513a22.838 22.838 0 00-1.47 2.489c-7.811 5.172-12.5 13.027-13.727 19.864-.053 4.889.832 9.866-.948 14.6.3 5.765.664 11.513 4.251 17.579 1.913 4 5.42 8.918 7.687 13.435a12.56 12.56 0 002.5 3.985c-.708-11.734 3.268-23.07 14.347-33.361 1.948-1.771 3.41-3.082 5.207-4.773 7.085-7.581 9.954-16.481 12.478-25.09 5.9 18.1 9.3 36.966 15.941 55.519.2 11.9-.93 23.681-1.665 35.5-5.925 18.5-12.035 36.974-18.7 55.413 2.568.956 6.1 2.17 9.219 1.266-.5 3.542-1.9 7.634-1.984 10.875.452.461.983 0 1.417.7a33.647 33.647 0 003.693-.585 27.228 27.228 0 012.878-1.568c4.218-2.925 6.751-6.583 7.61-10.142 2.347-19.156 5.579-38.232 5.314-57.618 2.489 7.3 2.657 15.055 2.781 22.574.053 2.559.39 5.092.248 7.537-.611 10.025.106 19.953.638 30.013a27.914 27.914 0 011.16 4.889c5.774-5.571 12.221-12.523 13.213-19.227-.142-.115-.159-.239-.08-.345-.531-1.142-.762-2.267-1.408-3.427-4.587-13.842-7.182-27.516-9.565-41.163-.159-2.373-.168-4.729-.283-7.085.275-1.116.425-2.241.753-3.348.806-.576.992-1.2 1.869-1.771 1.364-.8 2.515.691 3.879-.115-1.939-3.684-6.252-6.314-9.928-2.356-.753-2.055-2.763-4.508-2.807-6.855-.1-5.243.886-10.858 1.444-16.278 1.585-15.941 4.083-32.768 5.216-48.523a22.618 22.618 0 001.3-4.428c1.346-2.949 3.542-6.8 7.085-8.856-2.524-1.922-5.376-.23-8.218 1.435-.239-1.541-.177-4.038-.381-5.96 1.683-2.559 3.649-6.2 6.6-7.616 6.279 5.411 13.284 2.843 20 3.144 6.562-1.435 13.328-2.923 19.847-1.072a15.728 15.728 0 015.438 5.491c-3.994 2.019-8.165-.053-11.309-3.542-.7 1.231-.3 3.188.133 4.915.992 3.835 3.418 9.662 8.086 11.646a.443.443 0 01.549.159c5.314-.381 11.026.062 16.428-5.376a21.592 21.592 0 001.488-3.914c2.489-.655 5.075-3.427 6.075-5.5.2-.886.354-1.709.567-2.568-.248-4.233.239-8.4-.815-12.717-.407-4.207-3.4-8.652-4.995-12.974a32.963 32.963 0 00-27.844-15.835c-10.128 3.066-25.21 12.666-31.452 21.934-1.771 3.33-.682 6.926-2.506 10.255-.956-2.063-.478-4.977-1.851-7.457 3.658-7.156 2.435-14.746 2.09-22.256-1.479-7.085-2.958-14.17-7.767-21.529a62.183 62.183 0 00-2.161-2 43.022 43.022 0 016.013-3.826 121.63 121.63 0 0113.593-1.955c1.559-.841 3.542-.965 4.428-2.914-.275-.647-1.514-.567-2.2-.886-2.993-2.046-6.438-5.677-9.122-7.182l-1.134-1.355a42.793 42.793 0 00-12.85-6.607c-15.436-5.5-32.219 9.813-36.31 19.333a64.26 64.26 0 00-2.365 26.675 11.894 11.894 0 00-.629 3.356c-2.3-5.092-4.561-8.927-6.5-10.052-.142-.195-.3-.39-.425-.593 2.187-5.774 0-11.77-4.428-17.075-3.914-4.694-9.742-6.492-14.382-6.934a56.454 56.454 0 00-10.22-.053 24.8 24.8 0 00-7.864 2.657 68.31 68.31 0 00-7.466 3.374 186.522 186.522 0 00-18.323 8.6c-1.975 1.08-4.251 1.9-5.748 3.622 4.924.257 9.379 2.32 14.648 5.314a89.7 89.7 0 0013.284 10.14c8.289 3.33 16.224 3.489 24.089 2.976 2.3-1.337 5.686-1.461 8.387-2.559 1.612-1.559 3.356-1.975 5-3.188.682-1.054 1.435-1.417 2.125-2.418.177.124.337.257.5.381a.313.313 0 01.1.328l2.187 4.9.044.1c.266.416.531.824.788 1.24a2.657 2.657 0 01.372.585 5.979 5.979 0 01.124.744zm109.582 5.313c-3.286-1.966-7.492-1.39-11.274 1.275-2.028 1.426-3.817 3.542-6.2 4.127a27.163 27.163 0 00-8.688-.886c.983-3.888 4.393-10.185 9.334-10.946.824.1 1.568 1.134 2.444.673-.691-1.311-2.435-1.523-3.622-1.576-6.518 1.665-6.757 8.679-11.6 12.638-2.409.567-4.871 1.771-7.253 2.1.328-1.833.585-3.675 1.054-5.491a20.945 20.945 0 014.021-4.207c1.027-.886 3.091-1.16 3.383-2.205a10.034 10.034 0 00-4.517 2.108c-3.941 2.967-5.314 7.377-6 11.088-2.311 1.311-4.676 3.073-6.987 4.428-.159-2.063 1.01-4.012 1.665-6 .886-1.55 3.64-2.94 4.428-4.508-1.2-.115-2.533 1.142-3.844 2.17-2.816 3.277-3.48 6.748-4.889 10.158-1.541 1.125-3.029 1.647-4.614 3.232-.186-5.818 5.863-12.142 11.371-16.419a79.576 79.576 0 006.868-4.772c4.428-2.09 9.29-5 13.975-6.049 6.323-.638 12.3 2.657 18.244 6.288.841.956 2.32 1.674 2.737 2.737zm9.9 31.253c-1.568-2.861-4.375-2.923-6.5-3.764-1.213-1.869-2.01-4.924-3.1-7.475 3.047.753 6.7.142 9.131 3.658.531-1.824-1.771-2.48-2.737-3.773-2.763-.567-5.553-.762-8.227-2.32a10.849 10.849 0 00-3.542-5.216c3.153-1.293 6.323-2.772 9.264-1.683.673.159 1.24 1.408 1.957 1.08-2.834-5.774-8.555-1.125-12.682-.886a7.969 7.969 0 01-1.479-1.266c-1.116-.31-2.161-1.408-3.25-1.886-.974-.788-2.577-.744-3.17-1.532 3.2-3.8 7.785-6.633 11.717-6.252 2.763.266 4.623 1.931 6.2 4.2 3.826 5.314 4.88 10.353 6.058 15.233.151 2.028.762 4.092.708 6.1-.001 1.868.787 4.401-.347 5.783zm-6.2-2.143a10.734 10.734 0 013.454.886c.735 1.621 3.188 2.258 2.533 3.542-1.293-1.709-3.188-3.268-4.313-2.657 1.134.531 3.33 2.524 3.666 3.631-1.275-.638-2.409-2.8-3.79-2.267a8.351 8.351 0 011.771 1.86c.319.407 1.656 1.107 1.258 1.258-.5.523-1.771-1.488-2.657-1.373a7.085 7.085 0 001.258 2.5c-.452.372-.886.886-1.311.682.611-2.6-1.417-5.4-1.86-8.059zm-19.368 11.6c-.886-.638-2.79-.788-2.878-2.187.345.416.691.824 1.107.328-1.169-.735-2.409-2.055-2.241-2.931 1.656 1.886 2.6 2.985 4.021 4.791zm3.773 4.207c-.646.434-1.222.08-1.886.744-.275-.372-1.16-.5-1.054-1 .931.275 1.953-.074 2.941.258zm2.179 1.107c-1.151.576-2.861.6-3.542-.195 1.169.071 2.382-.337 3.507.195zm-42.748-26.567c3.666-3.6 7.085-4.968 10.751-8.156 4.605-2.737 9.024-3.33 13.523-4.835 8.856-.071 18.4 1.266 25.275 11.69a33.548 33.548 0 01-2.657 9.343c0 2.993.469 6.642 2.241 9.423-.186-3.25-1.824-6.616-1.293-9.795 1.258-2.249 1.957-4.543 3.109-6.793 2.2 3.454 2.9 6.766 3.852 10.131-3.047 3.542-2.967 7.4-3.383 11.2-.2.664-1.293 1.258-1.311 1.94 5.243-2.967.354-7.785 5.314-11.15 1.187 2.232.886 4.331 1.027 6.474-1.178 4.508-7.324 7.43-11.2 6.864 1.559-2.214 1.231-4.6 1.072-6.97-1.178-4.375-4.9-9.7-9.228-11.513-10.4-1.771-21.255 1.6-31.82 1.771-2.418-.585-4.835-1.16-7.085-3.48-1.01-2.223 1.1-4.127 1.78-6.155zm-9.378 179.824c2.559-5.5 2.976-11.2 8.413-16.455a4.224 4.224 0 01.886-.142c1.036 1.568-.089 2.949-.275 4.428a37.832 37.832 0 01-9.024 12.169zm-3.24-63.613c.425-2.055.062-4.171 1.346-6.2l.239-.2c.292.062.39.195.186.478a12.893 12.893 0 01-.195 2.258c1.435 16.3 3.472 32.653 10.627 49.462-2.2.31-4.6 2.524-6.049 4.021-.159-3.082-.886-6.2-1.337-9.343-.886-2.205-.478-4.3-1.249-6.492-.1-1.2.31-3.383-1.01-3.959-.283 5.4.886 10.937.487 16.331-.5-4.711-.708-9.405-1.142-14.108a35.655 35.655 0 01-.629-7.005c-.089-2.205-.753-5.075-.08-6.837.434 2.506.381 5.571 1.7 7.776 1.045-7.085-1.523-14.568-2.391-21.848a9.308 9.308 0 00-.5-4.331zm-.691-5.075c.691-2.072.567-4.543 3.728-6.049 1.072-.159 2.17-.487 3.162.275a5.863 5.863 0 00-3.232 1.886c-.744.7-.655 2.533-1.479 2.48.071-.443.708-.886.124-1.355-1.249.806-1.311 2.32-2.3 2.763zM76.562 52.128zm0-.487zm.275-.886a21.822 21.822 0 011.346-3.959c0-.071 0-.133.071-.151l-.071.151c.053.2.381.531.478.337.806-1.328-.682-3.472.956-4.348.1 1.036-.549 2.586.5 3.339 1.2-1.939-.345-4.207.886-6.633 1.771 5.385 1.771 11.141-3.932 15.241-.168-.425-.345-.832-.514-1.24v-.886a3.543 3.543 0 00.142.523 3.223 3.223 0 00.221.5c.886-1.063.053-2.276.3-3.392a1.213 1.213 0 00-.248.23 2.712 2.712 0 00-.186.257zM97.772 81.92c1.506 2.338 1.151 5.889.2 7.971-3.179-2.17-6.536-2.524-9.821-3.489-2.285-6.864-6.075-19.041-10.034-29.181.762-1.284 3.436-2.657 6.9-4.145a38.294 38.294 0 006.2 13.2c5.163 7.227 13.4 14.515 21.414 13.426a9.209 9.209 0 001.665-.762c1.47 4.127 1.373 8.7 2.2 12.4-5.88 9.281-7.165 18.961-11.4 28.34-.549-4.038-.691-8.041-.886-12.044-.744-4.083.195-8.024-1.426-12.195-.576-.585-.416-1.1-.762-1.665-.115-.939.682-1.771.815-2.772.177-1.39-.664-3.4-1.488-5.03s-2-4.067-3.577-4.054zm4.738 22.406c-.5-3.542-1.824-7.147-2.657-10.716 3.224 3.251 2.56 7.741 2.657 10.716zm-2.754-19.041c1.559 2.453 2.285 5.447 1.293 7.289-.1-1.027.328-3.117-.832-3.489-.159 1.089.425 2.241 0 3.3-1.435-2.478-.124-4.708-.461-7.099zm7.918 51.986a12.94 12.94 0 01-.682-5.075 28.72 28.72 0 010-5.013 82.24 82.24 0 011.771-9.857c2.046-6.545 4.136-13.081 7.767-19.484.275 1.692 0 3.33.239 5.03-3.374 9.228-2.418 18.846-3.764 28.26s-2.329 18.855-2.852 28.34c.053.089.1.168 0 .23s-.159.106-.221 0c-.115-7.455-2.551-15.08-2.258-22.431zm15.17-63.153c.523 3.773-2.657 7.811-3.941 11.044a64.048 64.048 0 00-1.479-7.767c2.533-.664 4.269-3.055 5.889-4.711a3.3 3.3 0 01-.469 1.434zm-5.385 15.808a47.2 47.2 0 00-4.092-18.129c.717 1.771.221 3.542.673 5.314-.611.363-.523.8-1.134 1.16-2.657.469-5.216-.23-7.767-1.036-.372-.469-.151-.461-.62-.735-6.5-3.9-11.46-10.5-15.853-17.712a49.958 49.958 0 01-3.489-17.163c.3-5.314-.124-10.716.39-16.021.407-2.657.832-5.243 1.382-7.855a9.219 9.219 0 00.23-1.55 3.4 3.4 0 00.248-.514l-.2.115a12.748 12.748 0 01.186-2c.106-.664 0-1.638.124-2.444l.168-.159c0-.257.062-.54.089-.832a.47.47 0 01.168-.159 31.881 31.881 0 004.88 3.79 6.545 6.545 0 00-2.143 2.09c.478-.23 1-.5 1.532-.806a5.242 5.242 0 00.053 1.107 5.773 5.773 0 00-1.089.886 16.152 16.152 0 00-2.382-3.826 45.075 45.075 0 002.117 6.04 10.238 10.238 0 00-.886 1.142 10.379 10.379 0 01-1.32-2.276 2.927 2.927 0 00.655 3.171l-.089.124.124-.071a6.385 6.385 0 001.842 1.559 4.579 4.579 0 00-.939-2.152 12.147 12.147 0 00.956-.771c2.311 5.137 5.447 9.954 8.8 15.206 2.719 3.224 4.18 7.359 5.96 11.123a19.554 19.554 0 013.374 8.272c2.205 6 5.075 12.159 5.438 18.253.177.186.4-.159.558.168-.337.691.443 1.479.151 2.179 1.39 2.117 1.178 5.447 1.771 7.7 0-.239.1-.443.239-.354 0 1.178.425 2.391.478 3.542-.218 1.233.604 2.517-.582 3.624zM96.55 19.962c-.292 1.692.195 3.436-.337 5.1-.469.31 0 1.771-.576 1.311-1.408-3.241-1.408-6.766-2.435-9.91.328-.283.682-.576 1.063-.886a2.745 2.745 0 00-1.24.354c-.115-.319-.239-.62-.381-.93.3-.186.6-.381.886-.585.62.407 1.284.832 2.019 1.328-.478.832.4 1.771.788 2.657a1.47 1.47 0 00.213 1.55zm19.484.886c.186-1.1.646-2.117 1.771-2.161-.514.478-1.382.939-1.045 1.5.363.266 1.479-1.364 1.435-.779-.655.54-1.408 1.072-1.045 1.709a4.426 4.426 0 01-.443-.062 4.313 4.313 0 01-.682-.248zm-2.861-2.754l-.186-.363a4.428 4.428 0 01.354-.354 2.8 2.8 0 01-.177.673zm.487.886a4.844 4.844 0 011.373-1.32 8.051 8.051 0 01-1.045 1.771 3.542 3.542 0 01-.337-.514zm1.054 1.178l-.31-.319c.089-.08.213-.1.4 0a1.726 1.726 0 01-.1.257zm-23.168-2.064l.886-.886c.071.345.151.7.221 1.063a3.542 3.542 0 00-.815.425zm1.293 2.737a36.28 36.28 0 01-.664-1.373l.593-.558a6.2 6.2 0 01.062 1.869zm-7.59-2.453c.39-.345.779-.7 1.116-1.054-.319 1.824-.655 3.64-.956 5.464a40.932 40.932 0 00-.381 3.33c-1.886 1.55-4.3 4.021-3.622 6.2.983-1.993 3.1-4.49 3.622-6.2-.089 1.036-.151 2.081-.239 3.126a89.26 89.26 0 00-3.454 4.9 44.15 44.15 0 01.2-7.5 13.794 13.794 0 00.593-1.382 1.168 1.168 0 000 .248.815.815 0 00.071.239c.779-.779 2.2-2.453 2.373-3.666l-.186.195a.46.46 0 00-.1.089l-.106.1a10.8 10.8 0 00-1.771 1.922l.8-2.373a2.152 2.152 0 00.567-.434l.089-.089c.08-.089.168-.186.248-.292l.071-.089c.239-.31.478-.647.717-.974a.735.735 0 00.071-.106l.257-.3.106-.124a3.348 3.348 0 01.354-.354c.319-.257.08-.213-.08-.345a4.213 4.213 0 00-.452.283l-.115.1-.345.292-.106.1q-.186.168-.372.372l-.062.062c-.142.159-.283.319-.416.487.31-.664.531-1.408.886-2.143a1.018 1.018 0 000 .23 1.018 1.018 0 000 .23l.558-.5zm-.478-.275zm-1.568 3.3v-.062zm-.053.647a1.408 1.408 0 01-.39.106 1.407 1.407 0 00.381-.168zm-.886 2.8zm5.048-13.187a118.78 118.78 0 01-.717 4.632l-.124.089-.523.407c-.168.151-.337.3-.487.452a4.877 4.877 0 00-.407.478c.5-.8 1.328-1.6.992-2.542a43.51 43.51 0 00-6.314 15.941c.416 2.807 1.594 5.686-.39 8.281-.425-.416.6-.708-.133-1.151-.487.638-.558 1.32-1.311 1.931 1.125.788-.443 2.719-.753 3.348-.266-9.99 0-20.369 7.5-29.287a34.709 34.709 0 012.613-2.639zm44.912 7.228c.629-.478 1.063-1.585 1.771-1.089-.603.531-.993 1.479-1.771 1.089zm-5.314.452c.992-.629 1.426-1.816 2.462-2.063.5.567-.974.487-1.01 1.054.832 1.311 2.657-2.055 3.126-.523-1.142 1.506-3.126 1.585-4.543 1.532zm-5.013 1.258c.886-.948 1-2.852 2.524-2.737-.487.567-1.249 1.107-.841 1.771.54-.4 1.1-1.222 1.718-1.444 0 .629-.735.487-.549 1.089.461.345.469-.425 1.045-.248-1.337 1.337-2.577 1.231-3.861 1.568zm0-4.782c1.585-2.542 4.508-3.374 6.589-3.631-3.091-.939-5.464 1.213-8.511 3.542-1.16-.23-2.365.1-3.542-.425 1.771-1.771 2.878-4.5 4.756-6.066.673-.567 1.55-.461 1.718-1.444-3.489.886-5.579 5.358-8.635 7.439-1.771-.283-3.613-.354-5.42-.487 1.683-3.613 5.987-7.971 9.821-9.264-.655-.585-1.55.089-2.205.372a22.759 22.759 0 00-9.742 9.4l-1.851.425a10.823 10.823 0 01-1.771-1.532 15.463 15.463 0 003.472-4.092 49.473 49.473 0 00-4.065 3.542 38.54 38.54 0 00-.753-.709c.886-.691 2.205-1.089 2.515-2.542-.886.62-2.152 1.249-3.153 2.019-.168-.124-.328-.239-.5-.345s-.31-.168-.461-.257a12.186 12.186 0 011.771-3.968c2.152-2.745 5.393-2.382 7.218-4.375-2.949.824-5.783 1.55-8.334 4.047-.514 1.293-1.01 2.586-1.523 3.879a31.732 31.732 0 01-3.87-1.966c1.16-.5 2.329-1.187 3.117-1.594a4.889 4.889 0 00-3.861 1.027 6.193 6.193 0 01-.54-.54c.673-1.054 1.4-2.1 2.214-3.135a22.548 22.548 0 00-4.924 6.58 44.36 44.36 0 01-2.657-1.568c3.9-3.427 8.449-6.7 12.709-7.864 3.906-1.054 7.7 0 11.3-.248a68.315 68.315 0 0111.8 5.473c3.144 2.887 7.386 5.083 10.362 9.122-.425-.478-.886.071-.974-.655-1.364.425-2.657-.39-3.941-.469-.558-.044-2.285.478-2.037-.177 1.213-1.072 2.8-.053 3.631-1.16-3.038-1.346-6.58 2.754-9.715 1.647zm-2.967 5.2c.407.124.886-.886 1.293-.452a3.852 3.852 0 01-.8.646 16.441 16.441 0 00-2.028-.133c1.134-.744 2.409-2.232 3.728-2.94-.469.983-2.754 1.807-2.2 2.878zm-1.364 54.8c-.531-1.16-.319-2.117-1.275-3.542a11.026 11.026 0 013.542-6.3 25.471 25.471 0 003.33-8.024c-.337-1.426.2-2.79 0-4.207s.39-3.064-.673-4.047c.124 6.545-.691 13.479-6.819 19.1-.6-.779-.416-1.479-.824-2.241.089-2.267 1.514-4.428 2.187-6.633 2.294-3.109 2.568-6.385 3.463-9.609.106-1.523.106-3.233.106-4.88s0-3.542-.939-4.871c.106 5.314.39 10.627-1.621 15.808-1.886 2.187-2.949 5.048-4.26 6.908a14.878 14.878 0 00-1.151-3.631c.39-5.447 4.092-10.441 4.711-15.87a26.365 26.365 0 00-1.655-13.473 32.805 32.805 0 01-4.428 25.683 69.845 69.845 0 00-3.2-8.856c-.2-5.677 2.985-11.052 2.506-16.747a21.087 21.087 0 00-1.966-7.359c.8 6.908 1.842 13.833-2.48 20.281a63.285 63.285 0 00-4.03-7.3c.08-5.579 2.657-11.513-.886-17.048 1.461 4.871 1.993 9.662-.886 14.17q-1.408-1.939-2.657-3.879c-.071-4.26.257-9.078-1.568-13.125 2.09.886 4.207 1.373 6.2 3.4 5.6 1.957 11.805 5.535 15.791 11.912 1.364 2.214 2.117 4.871 3.117 7.218 3.082 7.156 3.206 14.692 3.7 21.175-1.594 5.269-.443 11.9-7.342 15.985zm-2.657 22.318c.124-.106 0-.345-.213-.248-.5.983-.886 2.577-1.771 3.144a68.769 68.769 0 017.971-13.984c-.5-.354-.531-.106-.886-.762.93-2.843 3.241-6.2 3.844-8.652.443 2.923-.239 5.748-.983 8.564-4.154 3.773-5.7 8.378-7.962 11.938zm9 0a13.231 13.231 0 00-3.826 5.925c-.381-.133.7-2.046.257-2.94-1.984 1.727-2.914 4.526-3.339 6.766-.283-2.914 2.241-8.325 6.908-9.751zm-11.894 59.5q.54-12.4 2.081-24.753c.744-8.1.886-16.827 2.745-24.478-.4 3.3-.886 6.607-1.107 9.928.487.186.354-.744.886-.5-.5 14.418-1.851 28.765-3.711 43.067-.983-2.931.717-5.633.186-8.528.062-.815.886-2.09-.106-2.657-.719 2.673-.465 5.347-.976 7.924zm-7.811 98.41c-1.251 4.431-6.866 9.045-11.515 8.56 2.453-3.569 7.191-9.405 11.513-8.52zm-17.146-3.232c1.886.142 3.7 1.142 5.677.283.221.452.531-.053.753.407-2.108.39-4.809.363-6.43-.655zm12.185-34.678c1.47-1.692 1.072-4.154 2.09-5.509a177.319 177.319 0 01-5.314 27.658 55.715 55.715 0 01-3.1 11.805c-.514-.806.089-1.514-.248-2.3a138.633 138.633 0 004.322-15.339c-.177-.469.425-.886-.328-1.4-1.151 1.151-1.072 2.294-1.328 3.418a85.905 85.905 0 01-5.429 15.047 13.284 13.284 0 01-3.321.275c1.373-6.713 4.756-13.284 6.323-19.944 2.657-6.633 3.932-13.391 7.085-19.98-.062-.071 0-.221.115-.106-.027 2.09-1.346 4.658-.868 6.412zm4.49-91.644c.779-.257-.124 2.249.886 2.01.886-2.595.788-6.385 2.09-8.954a.6.6 0 00.257.5c-1.559 8.467-1.027 17.3.2 25.993s1.9 17.588 2.914 26.232a5.641 5.641 0 00-.159 1.771c.2.585 0 1.142.416 1.771.186 13.231 1.045 26.524-.328 39.614a327.983 327.983 0 01-5.417 39.277c-3.368-1.535-8.086 2.353-10.282 5.47-.275-2.5 1.063-4.844.77-7.342a14.648 14.648 0 001.3-5.695c1.833-5.314 1.984-10.831 3.826-16.18-.292-.708.08-1.355 0-2.055a85.081 85.081 0 002.887-19.785c.709-6.66 2.019-13.284 2.117-19.971.567-13.391 1.089-26.79.832-40.251-1.2-7.466-1.683-14.9-2.311-22.371zm-10.362-10.371c1.125 1.249.886 3.418 2.373 5.314.478-3.684-2.125-8.245-1.931-11.566 3.02 10.751 4.986 21.4 9.21 32.254-.531.832.514 2.4-.133 2.834-.54-.886-.886-3.064-2.028-2.914.886 3.658 2.444 7.359 2 10.893-2.285-6.2-3.268-12.4-5.314-18.6a196.163 196.163 0 00-2.258-9.2c-.762-2.2-1.346-4.915-1.886-7.005-.133-.487-.85-1.63-.035-1.975zm-2.1-18.7c1.213-2.559 3.923-5.677 6.669-4.534 3.294 7.661 3.029 15 4.162 22.468.629 7.466.886 14.887 1.1 22.318-4.571-13.492-7.024-26.776-11.93-40.255zm3.215-7.971c-4.57.248-9.981.673-15.055 4.827a33.918 33.918 0 01-3.79 2.967c-.381.345-.31.735-.779 1.072-.744.611-1.479 1.231-2.214 1.851-3.658 3.817-7.235 7.634-8.44 11.664-1.975 2.444-3.72 4.915-5.553 7.368-2.745 7.351-6.925 14.577-6.3 22.229-1.452 3.135-.239 6.509-1.089 9.742a86.733 86.733 0 00.522 5.624c.717 1.638 1.027 4.428 2.382 5.314-1.045-2.143-1.142-4.2-1.5-6.279-.142-1.568-.213-3.135-.381-4.711.345-.257-.345-1.6.328-1.107a9.664 9.664 0 011.532 4.579c.886-1.718-.381-4.2-1.886-5.748.275-2.373.266-4.765.744-7.085.283.886 1.328 1.346 1.975 2.117 1.771 2.8.886 5.987 1.975 8.6 1.55-3.923-.576-8.174-3.339-12.487a25.258 25.258 0 01.275-5.668c1-.974.638-2.657 1.656-3.268a19.483 19.483 0 013.542 11.7c-.213 1.072-.673 3.117.708 3.6-.443-4.428 1.151-8.706-2.232-13.408a16.526 16.526 0 00-1.364-3.879 31.5 31.5 0 016.669-13.541c1.1 5.19 2.595 11.4 2.373 16.827a14.1 14.1 0 00-.646 3.472c-.133 1.116-.558 2.453 0 3.312 3.17-7.5.514-15.525-.089-23.363a10.627 10.627 0 00.5-3.144l.744-.62c-.514-.39-.071-.682-.248-1.045 2.6-3.3 5.013-7.023 8.484-9.609a21.255 21.255 0 00-1.054 6.74c.691 7.271 5.677 14.931.806 21.715-.629.815-1.922 1.576-1.479 2.489a32.769 32.769 0 002.9-3.047c2.914-5.969 1.151-12.354-.886-18.757a15.821 15.821 0 014.534-13.842c1.532-.708 2.551-2.471 4.127-2.816-1.4 3.215-1.134 6.58.7 10.078.717 4.924-1.16 9.627-1.771 14.427a33.3 33.3 0 002.9-12.266c-.416-2.657-1.47-5.447-1.771-8.13.142-2.657 1.771-6.1 5.119-6.385-2.94 1.692-3.914 6-3.241 8.369.283-2.931 2.063-5.739 3.489-8.573 2.657-.283 5.4-.886 7.971 0-.992.328-2.595 1.417-3.914 1.771a11.443 11.443 0 00-2.524 2.745c-2.01 6.43-1.922 13.036-5.588 19.324-1.709 7.173-7.537 13.984-14.25 20.715-10.007 9.326-14.427 19.74-14.816 29.553.106.08 0 .159 0 .221v-.23c-3.542-5.517-6.58-11.575-9.565-16.676a30.164 30.164 0 01-1.275-20.272c-1.479-9.069 1.249-18.332 11.079-26.019.523-.266.3.478.886.31 4.508-4.517 9.343-1.683 13.824-1.771.735-.62 1.452-1.24 1.541-1.913-4.676.487-9.193-.815-13.993 1.036 1.2-1.621 3.374-3 4.986-4.8 11.021-8.284 21.878-10.073 31.762-5.902zM76.712 59.969c.806 1.346.735 3.755 2 4.428.186-.549-.159-1.151-.416-1.771.248-.337-.682-1.771-.106-1.373 2.48 7.971 4.765 15.941 7.448 23.912a5.561 5.561 0 01.585 1.2 2.657 2.657 0 01-1.479 0c.133-1.966-.832-3.826-1.435-5.712-1.913-5.925-3.826-11.858-5.96-17.615.133-.983-.894-2.063-.638-3.029zm-2.6-2.985a.842.842 0 00.1.257c-.3.2-.576.372-.629.319a2.6 2.6 0 00-.345.23c-4.995-2.081-11.46 1.541-17.278 5.314-12.531 9.29-18.6 20.847-25.621 31.625a19.6 19.6 0 01-3.542 6.58c-1.523 5.092-5.03 9.742-5.819 15.055 2.409-3.87 3.542-7.971 5.987-11.867.726 1.355-1.107 2.763-.629 3.693a5.444 5.444 0 001.08-4.765c1.479-1.975 1.833-4.18 3.215-6.2.753 1.258.443 1.6.886 2.71a.478.478 0 00-.089.443c0 1.355-1.1 2.489-1.125 3.835 1.08-.708 1.461-2.462 2.01-3.649-1.169-4.906 1.107-9.113 4.171-13.16.886-.089 1.382 1.417 2.267 2.542a6.917 6.917 0 01.08 2.444 11 11 0 01-1.337 3.782c0 1.355-1.931 2.311-2.019 3.64 1.054 0 3.091-2.373 2.1-2.356 3.542-3.33 1.55-7.785 1.585-11.832 1.063-2.985 1.993-6 4.649-8.67.815 1.771.186 4.286 1.231 6.509.133 1.683.159 3.348.257 5.021-.381 1.55-1.364 2.967-1.39 4.587 4.6-4.986 0-12.806 2.046-18.686a97.179 97.179 0 017.97-7.971c.124.886-.567 2.586-.992 3.737-.629 3.312.744 6.74 1.089 10.061.292 2.825-1.373 5.686-2.285 8.449 3.861-4.154 3.542-9.148 1.984-14.409-.514-3.852 1.337-7.218 3.631-10.5a65.179 65.179 0 015.7-3.542 18.279 18.279 0 00-.337 11.974c.23 2.046-.8 3.852-.948 5.827-.585 1.886-2.258 3.542-2.285 5.553a21.892 21.892 0 004.251-11.292 25.462 25.462 0 01-.956-6.1 15.746 15.746 0 012.276-6.137 5.314 5.314 0 001.532-1.24 32.009 32.009 0 016.447-.434 4.473 4.473 0 01-.939 2.356c-1.107 6.492-2.559 12.912-5.694 19-2.453 2.754-4.835 5.907-8.254 8.165-2.8 1.86-6.376 3-9.529 4.782-4.278 2.427-8.466 5.057-12.4 7.678a38.8 38.8 0 00-16.074 21.636c-.886-6-.062-12.673.664-18.731.886-.744 1.364-1.771 2.365-2.533 1.683-1.32 4.2-1.5 4.906-3.064a16.207 16.207 0 00-6.775 3.72c-.177-2.852 1.266-6.376 1.771-9.467a81.693 81.693 0 013.277-9.3c2.524-6.12 6.952-11.867 12.762-17.323a1.426 1.426 0 011.116-.354 10.919 10.919 0 01.886-1.337c6.4-5.615 15.817-11.814 22.495-10.495a281.54 281.54 0 004.543 1.612c1.337 1.1 3.95 3.011 5.96 2.32zm-2.214-6.5c-.425-.416-1.408-3.95-2.046-4.428v-.195a.354.354 0 01-.221-.416 2.282 2.282 0 00.071-.23.274.274 0 01-.133-.1l-1.39-1.771v-.053c-.886-1.08-.886-2.489-1.771-3.179-.514-.089-1.063-.646-1.585-.841-9.512-5.695-6.04-12.868-14.01-18.74-2.028-.443-4.154-1.771-6.137-1.815 2.506 1.948 4.773 2.152 7.3 3.968 3.994 4.189 4.26 8.8 6.748 13.169a24.947 24.947 0 00-9.06-3.082c-3.8-2.267-5.137-5.5-7.085-8.325-1.08-.549-2.134-1.541-3.463-2.347-2.17-.354-5.314-2.125-6.846-.939 1.939.593 4.428.726 6.766 2.32 3.445 2.3 5.4 5.385 7.085 8.1-2.993.443-6.2-.806-9.228-.779-3.224-3.224-6.111-5.818-9.388-6.244a7.085 7.085 0 00-3.631.186c2.568 1.063 6.2.762 8.679 3.011 1.036.948 1.39 2.223 2.515 3.02-2.32.372-4.729 0-7.085.124-3.356-2.657-7.289-5.207-9.742-3.232a10.468 10.468 0 018.254 3.286 13.4 13.4 0 01-6.465.39c-2.657-1.993-5.739-2.249-7.652-.956 2.028.1 4.827-.469 6.323 1.337-3.02 1.594-8.068-.717-11.052 1.258 1.621.186 3.162-.337 4.818.133 1.523.345 3.542.062 4.711.266a8.493 8.493 0 01-5.411 1.638c.682.655 1.249.283 1.9.7 3.64-1.142 7.085-4.03 11-2.737-.407 1.541-.655 3.737-2.1 4.694-1.559.753-3.968-.806-5.163-.213 2.311 1.222 4.517 1.514 6.545.283 1.373-1.647.531-3.321 1.638-4.641s3.445-.77 5.163-.815a38.54 38.54 0 014.207-.133c-2.7 2.4-4.3 4.711-7.085 7.661-1.851.779-3.782.832-5.686 1.222 2.613.461 5.269.443 7.439-1.878a57.51 57.51 0 013.95-4.428c4.083-3.542 8.785-1.771 13.355-1.063-3.232 2.214-5.535 6.678-8.9 10.149-3.286 3.224-6.961 3.011-10.689 2.356 5.916 3.932 12.9-1.39 17.19-8.466 1.984-3.029 4.357-2.524 6.616-3.144 3.179 1.151 6.093 1.913 9.078 3.542.151.611-1.7.275-2.3.832-2.2 1.169-2.8 4.49-4.269 6.651-4.428 2.781-9.839 2.551-14.17 3.321 3.294.8 7.147-.275 10.4-.956 3.852-.806 5.447-2.657 7.421-7.005 2.6-1.576 5.473-.779 8.378.3a4.357 4.357 0 01-.425 3.356c-4.242 3.932-9.689 4.844-14.568 6.456a33.587 33.587 0 00-6.81.319c-5.65-.5-11.265-.611-17.225-3.87a34.875 34.875 0 01-5.854-5.314 60.771 60.771 0 00-16.34-9.1c-.142-.133-.266-.275-.053-.452 5.5-2.179 10.937-4.9 16.419-7.235.319-.576.691-.62 1.027-1.027a195.58 195.58 0 013.48-1.541 39.224 39.224 0 0127.082-5.349 15.525 15.525 0 003.914 1.275 5.553 5.553 0 001.7.939c6.784 5.092 9.441 10.654 9.83 16.472a16.019 16.019 0 01-1.444 3.356 7.652 7.652 0 011.718 2.294.3.3 0 01.363.089 12.759 12.759 0 01.886 1.107 2.86 2.86 0 01.354.77 8.504 8.504 0 00.354.779c.407.638.983 1.523.983 1.532s1.7 1.9 1.355 2.435a13.906 13.906 0 001.364 2.559c.248.354-.337.682-.576.337l-.089-.142a.948.948 0 01-.044.416 15.294 15.294 0 01-.664-.629.292.292 0 01-.372-.151zm-2.187-6.6s.186.3.425.664c.3.549-.452-.629-.434-.638zm-8.652 78.377a26.011 26.011 0 01.886 7.829c-.77-2.081-.886-5.092-1.045-7.5-.044-.089-.009-.195.151-.3zm-5.216 19.023c-.611-1.01-.549-1.948-1.444-2.976l.372-.31c.691 1.151 1.488 2.285 1.063 3.312zm5.314.576c-.576-1.116-.531-3.144-.5-4.6.461 1.585 1.036 3.162.487 4.623zm-4.2-1.506c-.531-1.532-2.1-3.153-1.771-4.6.85 1.585 2.01 3.162 1.754 4.623zm.8-1.293c-.487-1.488-1.86-3.055-1.878-4.5 1.355.717 1.807 3.2 1.851 4.526zm9.267-26.374c.452 3.79 1.886 7.678 1.612 11.416-.646-4.021-1.514-6.917-2.471-10.7.221-.185.416-.929.859-.716zm-.1 21.627c-.053-1.63.283-3.241.319-4.862a4.49 4.49 0 01-.319 4.861zm-4.915 4.118a6.2 6.2 0 01.416 3c-.653-.618-.361-2.062-.414-3.001zm-3.275-10.625c0 1.523 1.258 3.153.5 4.605-.434-1.514-1.364-3.631-.5-4.632zm-4.844 16.207c.39.753.983 1.523.593 2.214a2.125 2.125 0 01-.593-2.241zm8.218-24.673c.2.319.195.62.6.965.053 1.461.425 3.117.6 4.72s.655 3.294-.053 4.428c-.328-3.294-1.107-6.624-1.4-9.919zm-13.47 31.156c-.7-1.506.124-2.878.832-4.26.345 1.452-.691 2.8-.832 4.233zm-1.9-5.526c.478-1.284.6-2.6 1.824-3.826-.168 1.16-.894 3.427-1.824 3.8zm4.331-3.826a2.657 2.657 0 01-.39 1.771c-3.268 2.294-2.214 4.959-3.162 7.457-1.452-2.781.328-7.253 3.551-9.255zm-3.436-1.107c-.239 1.541-.3 3.091-1.426 4.543-.407-.753.319-1.585.549-2.338s.115-1.931.877-2.232zm-1.585-.142a19.333 19.333 0 011.559-3.392c1.3-1.417 2.48-1.408 3.737-2.285.585 1.771-2.409 1.771-3.224 2.9-1.293 2.01-1.328 4.127-2.365 6.2-.7-1.258.461-2.294.292-3.454zm22.557-29.553c.886 1.532.266 3.9 1.08 5.8.177 2.019.832 4.092.487 6.075-.257-2.489-1.08-5.03-1.266-7.519-.549-1.045-1.2-3.463-.3-4.384zm-12.443 4.136c1.32-.992 3.489-.886 5.119-1.134-1.78 1.559-3.445 1.178-5.119 1.107zm-1.089 45.22a7.714 7.714 0 01-.585-3.693 4.4 4.4 0 01.58 3.689zm5.083-44.431a2.5 2.5 0 01-2.657.337 7.288 7.288 0 012.7-.337zm-9.963 40.357c-1.576-2.232-.806-5.243.106-7.625.434 2.559-.585 5.03-.062 7.625zm5.677 1.523c-.788-.956-.275-2.745-.673-4.047.673 1.39 1.187 2.772.717 4.047zm.275-4.428a4 4 0 01.461 2.551 2.205 2.205 0 01-.416-2.542zM52 125.02c1.142-.478 2.3-1.213 3.4-1.178-.266.833-2.418 1.656-3.356 1.187zm7.9-.549a54.1 54.1 0 011.107 6.819c-1.089-1.9-1.842-4.711-1.063-6.81zm47.065 79.921c.806 6.527-.983 12.824-1.027 19.271-.478.638-.266 1.337-1.08 1.948-.815-6.6.779-13.975 1.842-20.794.15-.133.035-.292.265-.425zm-3.541 49.232c-.593.257-1.2.62-1.727.186 1.39-6.9 1.771-13.886 2.657-20.839l.363-.31c.921 7.111-.939 13.975-1.32 20.963zm1.9-112.943c-.381-1.036-.4-2.595.283-3.162.658 1.125.827 2.205-.289 3.162zm-36.31-8.112a36.14 36.14 0 01.213-4.995c.717 1.24 1.142 3.923-.195 4.995zm36.18 3.206c-.886-1.08-.7-3.02-.531-4.375 1.354.69.743 3.073.531 4.375zm1.6 21.671c1.142.841.646 2.471.478 3.542a4.366 4.366 0 01-.478-3.542zm-9.8-31.971c-.708-.328-.744-1.47-.726-2.108 1.044-.009.938 1.506.725 2.108zm-.639 130.469c-.806-.886.558-2.595.788-3.8a38.179 38.179 0 011.045-4.012 76.586 76.586 0 001.293-8.2l.372-.31c.646 4.915-.886 9.644-1.966 14.409-.646.646-.699 1.319-1.532 1.913zm1.355-26.879a2.985 2.985 0 01-.2 2.258c-.877-.337-.487-2.019.2-2.241zm9.485-59.4c.6.646.452 2.152.071 3.082a2.2 2.2 0 01-.071-3.08zm.762 28.659c-.115 1.284.124 2.595-.567 3.826-1.284-.459-.699-3.612.567-3.824zm-9.37-66.417c-.886-.248-.567-1.231-1.1-1.771a1.045 1.045 0 01.717-.39c.31.691.753 1.452.381 2.143zm-26.568-26.285c-.053 3.188-.248 6.359.514 9.618-1.178-2.861-2.09-6.651-.549-9.635zm-7.023 11.114c-.142-.319 0-.425.266-.434a34.051 34.051 0 012.205 11.115c-1.24-3.6-1.39-7.112-2.506-10.7zm11.743-3.976c1.01 1.39 1.054 3.658.886 5.314-.416-1.789-1.072-3.6-.921-5.331zm1.373-.106a7.156 7.156 0 01.469 5.057c.3-1.692-1.072-3.463-.487-5.075zm-7.173 16.685c-.886-1.222-.124-2.294-.151-3.436a3.675 3.675 0 01.115 3.4zm-1.107-20.83c-.062-.124 0-.23.142-.337a.886.886 0 00.531.39c-.151 3.6 1.337 7.333 1.2 10.928-.832-2.2-.735-4.313-1.7-6.527.2-1.479-1.036-3.073-.2-4.472zm6.846-6.571c.4-.283.142-.8.629-.744.452 3.418 1.337 6.881.806 10.211-.3-3.153-1.311-6.359-1.47-9.485zm13.47-9.4a17.438 17.438 0 00-3.02 7.085c-.213-.195-.39-.717-.655-.283a8.827 8.827 0 013.64-6.819zm-14.453 13.975a11.292 11.292 0 01.753 4.428 6.252 6.252 0 01-.788-4.446zm3.817 7.085c-.1-1-.5-2.028 0-2.967.452.956.638 2.453-.035 2.931zm6-9.839a3.427 3.427 0 01-.239-2.524 2.1 2.1 0 01.2 2.489zm-4.41-7.227c.549 1.266-.23 2.418.133 3.666.762 2.949 1.771 5.925.815 8.723.941-4.054-3.336-8.527-.945-12.388zm-2.657 2.657c.523-.266.434-.974.965-.6-1.063 3.286 2.506 7.59.328 10.4 1.063-3.206-1.488-6.66-1.258-9.866zm-17.641 4.933a5.624 5.624 0 013.082-.071c-1.018.23-2.072.593-3.046 0zm1.346 1.745c-.54 1.054-1.771.08-2.657.337-2.816 0-5.712 1-8.564 1.523 3.475-2.4 7.628-1.966 11.224-1.86zm-2.79 1.922a30.775 30.775 0 00-10.247 2.506c2.329-2.365 7.094-3.073 10.255-2.506zm5.269-5.455c-.106-.159-.31-.337-.186-.469 1.647.2 3.365-.345 5.013 0-1.231 1-3.259.142-4.818.469zm-7.607 7.413c-2.17.54-4.278.292-6.527 1.7-.974.54-1.692 1.9-2.71 1.01 3.241-2.639 6.314-3.525 9.246-2.71zm1.63-5.553a23.025 23.025 0 01-5.216 1.018c1.373-1.222 3.622-1.293 5.225-1.018zm-8.44 28.411c-1.647 2.657-4.747 4.658-4.977 7.306-.8-2.985 1.957-4.641 4.986-7.306zm-.168-19.944c4.216-1.683 8.165-.416 12.345-1.771-.469.638-.514 1.32-1.311 1.931-4.667 0-12.4-1.4-14.267 5.455-.549-.1-.469.691-.965.6-.345-.708.753-1.3.629-1.993s1.753-2.985 3.578-4.224zm-4.72 19.4c-.549-.691-.089-1.3-.39-1.975.6-5.154 7.085-6.775 11.274-9.024a2.285 2.285 0 01-.611 1.771c-3.6 1.488-7.457 2.657-9.8 6.536a3.7 3.7 0 01-1.355 4.092c-.232-.511.539-.937.882-1.397zm1.727-.186c-.372 1.479-2.108 2.843-3.117 4.278-.027-1.541 1.993-3.2 3.162-4.278zm.886 1.328c-1.576 1.213-2.6 4.012-3.994 5.225.31-1.692 1.966-4.455 4.038-5.225zm-1.709-10.291a17.438 17.438 0 013.746-3.764c.664-.523 1.594-1.532 2.258-1.054a38.855 38.855 0 00-4.55 3.813c-.886.939-1.452 2.878-2.949 2.48a7.165 7.165 0 011.568-1.47zm-.983 3.33c.461-2.179 3.852-4.428 5.615-5.535.372.106.779-.186 1.178-.354.788.452 1.771-.673 2.524-.23a19.712 19.712 0 00-9.237 6.12zm.177-5.792c1.373-1.842 3.206-5.11 5.863-5.748-2.063 1.346-3.135 3.445-4.224 5.216 1.258-1.151 2.427-3.02 3.817-3.2-2.382 1.833-3.542 4.57-5.615 6.793-.744-1.054.948-1.9.939-2.878-.221.31-.478.168-.708-.195zm22.92-23.371c-2.108-.257-4.269.142-6.394.124a.46.46 0 01.044-.452 10.3 10.3 0 016.421.328zm10.353-8.856c.815-.168 1.638-.478 2.382.1a3.72 3.72 0 01-2.311-.115zm-3.215 5.411c1 .717 2.143-.213 3.144.5a3.932 3.932 0 01-3.41-.071c.221-.195.106-.319.337-.452zm-.646-4.278a6.128 6.128 0 014-.213c-1.266.133-2.648.744-3.932.195zm-10.468 6.252c1.231-.939 3.923-.585 4.995.213a34.757 34.757 0 00-4.924-.23zm4.552 2.657a8.129 8.129 0 01-3.968-.239c-1.55-.062-3.215 1.107-4.747.832 2.675-1.789 6.04-1.444 8.785-.558zm2.816-7.386c1.771-1.355 3.321-.638 4.951-.585a19.891 19.891 0 01-4.88.593zm8.652 1.337l-1.355 1.134c-3.87-.886-7.723-1.948-11.956 1.222-.886-1.036.77-1.3 1.435-2.037 4.162-1.594 8.015-.434 11.947-.31zm23.665-84.183a6.707 6.707 0 01-2.852 1.337 2.839 2.839 0 012.852-1.337zm1.063 6.014c.124-1.293 2.435-2.8 3.011-3.144-.877.939-1.993 2.967-3.011 3.144zm-.487-4.827c-.886.593-2.931 2.134-3.879 2.657-.292-1.559 2.621-2.657 3.914-2.657zm10.964-4.153c-1.426 1.116-2.737.886-4.189 2.258.159-1.47 3.055-2.436 4.189-2.258zm-13.975-1.692c.593-.487 2.657-.691 3.188.053a4.357 4.357 0 01-3.188-.053zm1.382 1.151c-.886-.142-1.842.151-2.719-.248.845-.522 2.727-.646 2.718.248zm5.65.5a.478.478 0 010-.452c1.426-.23 2.869-1.107 4.224-1.027-1.435.886-2.9 1.674-4.224 1.479zm2.338.549a4.906 4.906 0 013.418-1.4 5.092 5.092 0 01-3.418 1.396zm1.9 8.254c1.523-.54 2.409-2.409 3.773-2.737-1.134 1.222-2.143 3.613-3.773 2.737zm3.764-6.5a2.949 2.949 0 012.48-1.027c-.395.562-1.812 1.528-2.485 1.023zm-5.562 4.862c-.195-1.027 1.408-1.63 2.223-1.851-.067.873-1.564 1.528-2.228 1.847zm-1.045 1.506a49.156 49.156 0 004.6-3.011c-.071 1.554-3.33 3.945-4.605 3.007zm7.28 1.444c-.1-1.408 1.939-3.02 3.383-3.463-1.121 1.329-2.529 3.042-3.388 3.458zm-40.11 22.061c-.372-.886.549-1.993 1.125-2.409a3.091 3.091 0 01-1.13 2.404zm43.094-30c-.886.31-1.771.965-2.586.886.739-.719 1.687-1.604 2.581-.887zm-1.506 7.971c.035-1.2 2.515-2.923 3.321-2.772-.682.806-2.6 2.055-3.286 2.754zM78.293 36.525c.248 1.01-.372 1.939-1.169 2.861-.452-1.045.708-1.931 1.169-2.878zm-.195 15.8a13.842 13.842 0 01-.275-4.579c1.068 1.141 1.401 3.621.271 4.577zm3.542-23.841c-.5-1.187 1.55-3.339 2.6-3.64a14.17 14.17 0 01-2.6 3.64z" data-name="Path 9134" fill="#9ba8bc"/></g></g></svg>